<?xml version="1.0" standalone="no"?>
<!DOCTYPE svg PUBLIC "-//W3C//DTD SVG 20010904//EN"
 "http://www.w3.org/TR/2001/REC-SVG-20010904/DTD/svg10.dtd">
<svg version="1.0" xmlns="http://www.w3.org/2000/svg"
 width="700.000000pt" height="700.000000pt" viewBox="0 0 700.000000 700.000000"
 preserveAspectRatio="xMidYMid meet">
<metadata>
Created by potrace 1.14, written by Peter Selinger 2001-2017
</metadata>
<g transform="translate(0.000000,700.000000) scale(0.100000,-0.100000)"
fill="#000000" stroke="none">
<path d="M3270 6893 c-373 -35 -596 -80 -881 -179 -277 -96 -519 -216 -764
-379 -243 -161 -421 -313 -632 -540 -414 -445 -705 -1016 -827 -1625 -119
-591 -73 -1247 127 -1812 255 -719 743 -1331 1381 -1732 189 -118 575 -306
630 -306 34 0 44 43 69 320 18 190 22 279 15 287 -6 7 -75 46 -153 87 -152 78
-354 208 -470 301 -561 450 -927 1081 -1037 1786 -28 187 -31 590 -5 762 53
344 162 672 318 953 375 675 1010 1183 1732 1384 l67 19 0 -67 c-1 -106 -58
-1203 -63 -1209 -4 -3 -541 -132 -1060 -254 -26 -6 -52 -19 -57 -29 -5 -10
-19 -170 -30 -355 l-21 -338 20 -20 20 -21 537 113 c295 62 538 110 541 108 4
-5 -241 -3720 -252 -3817 -3 -30 -1 -52 8 -64 25 -33 384 -116 642 -148 143
-17 605 -17 745 0 746 91 1403 391 1930 880 614 569 978 1287 1082 2132 19
157 16 622 -5 785 -56 417 -160 757 -344 1125 -202 404 -474 753 -818 1049
-507 437 -1154 717 -1825 790 -100 11 -117 5 -126 -46 -11 -60 6 -1506 18
-1520 16 -20 37 -17 282 39 182 42 231 57 242 73 10 16 11 77 4 305 -5 157 -9
324 -10 372 l0 86 79 -24 c209 -64 480 -193 680 -324 192 -125 282 -200 462
-379 248 -249 391 -449 540 -756 241 -497 321 -1051 228 -1595 -150 -885 -751
-1693 -1564 -2106 -147 -75 -273 -130 -279 -123 -5 5 -100 2899 -95 2903 2 2
251 47 553 100 370 64 555 101 565 111 13 13 11 69 -22 507 l-36 493 -83 80
c-194 187 -348 325 -363 325 -27 0 -57 -39 -51 -68 14 -77 69 -803 60 -811 -5
-5 -272 -63 -593 -130 -321 -66 -590 -126 -597 -132 -12 -10 -14 -304 -14
-1780 l0 -1769 -39 0 -39 0 -6 243 c-4 133 -6 953 -4 1822 l3 1579 580 123
c449 95 583 126 593 140 9 12 11 34 7 63 -3 25 -16 176 -30 335 -32 370 -32
373 -55 385 -15 8 -146 -20 -551 -115 -292 -69 -535 -125 -540 -125 -5 0 -9
369 -9 854 0 764 -2 856 -16 870 -13 13 -43 16 -187 14 -95 0 -188 -3 -207 -5z
m310 -953 c3 -476 9 -871 13 -877 5 -7 20 -13 35 -13 15 0 263 56 552 124 289
68 527 122 529 120 4 -4 60 -607 57 -611 -1 -1 -260 -56 -576 -123 -469 -99
-578 -125 -592 -141 -16 -19 -17 -138 -11 -1902 4 -1215 9 -1886 16 -1895 13
-16 90 -15 234 3 474 62 923 243 1327 533 286 206 573 506 768 803 244 371
393 757 464 1196 22 134 30 517 15 669 -35 346 -135 679 -296 991 -143 276
-299 488 -524 714 -436 437 -986 722 -1586 822 l-140 24 -3 194 c-1 106 0 199
2 205 3 8 31 7 108 -3 1067 -144 1997 -812 2482 -1782 432 -862 467 -1892 94
-2771 -170 -399 -402 -744 -708 -1051 -467 -468 -1038 -776 -1680 -908 -467
-96 -1005 -84 -1455 31 l-130 34 2 34 c1 19 59 896 129 1948 92 1377 125 1918
117 1930 -5 9 -19 18 -30 20 -11 2 -258 -47 -548 -108 -290 -61 -529 -109
-531 -107 -2 2 4 127 14 277 l17 275 555 132 c408 97 558 136 567 149 7 10 13
37 13 60 0 23 13 307 30 630 38 755 37 731 16 752 -15 16 -24 15 -129 -12
-531 -134 -1069 -464 -1445 -885 -486 -546 -744 -1207 -746 -1911 0 -223 12
-355 50 -553 170 -876 754 -1640 1565 -2047 69 -35 79 -43 75 -63 -3 -12 -13
-109 -22 -215 -17 -187 -18 -192 -38 -186 -53 17 -232 101 -341 161 -955 524
-1573 1465 -1686 2568 -17 167 -14 525 6 690 78 658 334 1258 748 1755 95 114
310 329 423 422 415 343 909 582 1430 692 220 46 496 75 684 72 l75 -1 5 -865z"/>
<path d="M2150 3929 c-223 -48 -429 -93 -458 -100 -64 -13 -93 -46 -71 -79 21
-31 421 -360 438 -360 7 0 127 21 265 46 192 35 255 50 267 64 16 19 22 78 36
356 7 146 2 165 -46 163 -14 0 -208 -41 -431 -90z"/>
</g>
</svg>
