<?xml version="1.0" standalone="no"?>
<!DOCTYPE svg PUBLIC "-//W3C//DTD SVG 20010904//EN"
 "http://www.w3.org/TR/2001/REC-SVG-20010904/DTD/svg10.dtd">
<svg version="1.0" xmlns="http://www.w3.org/2000/svg"
 width="260.000000pt" height="260.000000pt" viewBox="0 0 260.000000 260.000000"
 preserveAspectRatio="xMidYMid meet">
<metadata>
Created by potrace 1.11, written by Peter Selinger 2001-2013
</metadata>
<g transform="translate(0.000000,260.000000) scale(0.100000,-0.100000)"
fill="#000000" stroke="none">
<path d="M2109 2486 c-16 -22 -55 -77 -86 -121 -31 -44 -76 -101 -101 -127
l-45 -47 -72 68 c-65 62 -107 88 -230 142 -42 19 -183 50 -270 60 -126 14
-187 23 -287 45 -82 17 -88 17 -106 1 -27 -24 -56 -127 -48 -169 12 -65 56
-85 236 -104 35 -3 71 -10 80 -15 8 -4 35 -13 60 -18 41 -9 129 -39 203 -70
16 -6 32 -11 35 -11 8 0 136 -65 189 -96 18 -11 31 -23 30 -29 -2 -5 -51 -48
-109 -95 -102 -81 -192 -166 -427 -400 -58 -58 -153 -143 -211 -189 -111 -88
-157 -133 -248 -246 -31 -38 -104 -124 -162 -190 -91 -104 -180 -227 -180
-250 0 -4 -22 -32 -49 -62 -71 -80 -125 -218 -119 -303 6 -82 27 -104 91 -95
57 9 78 31 114 120 17 40 68 123 119 194 49 68 96 133 104 145 8 13 33 45 56
72 22 27 62 81 87 119 60 91 351 368 516 490 15 11 52 41 83 68 30 26 58 47
62 47 11 0 36 27 36 38 0 6 4 12 10 14 20 7 124 115 162 170 23 32 44 58 48
58 4 0 42 41 86 90 l78 90 41 -38 c56 -53 112 -94 165 -119 203 -96 240 -113
245 -113 3 0 52 -22 108 -50 56 -27 123 -53 150 -56 l47 -7 0 169 0 169 -73
34 c-66 31 -172 73 -352 137 -102 37 -125 48 -125 60 0 12 42 54 54 54 5 0 42
33 85 74 42 41 88 84 103 96 30 23 44 72 34 123 -6 33 -66 106 -88 108 -93 10
-98 8 -129 -35z"/>
<path d="M413 2324 c-11 -17 -19 -53 -21 -97 l-4 -69 -112 4 -111 3 -19 -38
c-21 -43 -16 -93 12 -126 14 -17 33 -22 102 -26 47 -3 99 -8 116 -11 l31 -4 7
-101 c4 -60 15 -120 26 -149 10 -26 22 -75 26 -108 l6 -60 -42 8 c-23 4 -47
13 -53 19 -6 6 -17 11 -24 11 -23 0 -116 63 -151 102 -54 60 -102 48 -102 -24
0 -48 50 -147 97 -193 45 -43 165 -101 228 -109 58 -8 264 9 297 25 85 38 147
86 184 142 70 103 96 154 97 189 1 20 5 34 10 31 12 -7 8 12 -5 25 -27 27 -58
12 -148 -72 -88 -82 -164 -129 -227 -140 -32 -5 -33 -5 -33 32 0 20 -7 68 -15
107 -8 38 -15 92 -15 118 0 27 -4 46 -9 43 -11 -7 -21 27 -21 70 l0 31 143 7
c125 6 144 9 159 27 28 33 33 83 12 126 l-19 38 -156 -3 -156 -3 1 58 c2 113
-66 185 -111 117z"/>
<path d="M1517 1293 c-4 -6 -15 -10 -25 -8 -9 1 -22 -1 -27 -6 -6 -4 -23 -10
-39 -13 -15 -3 -39 -12 -53 -22 -18 -11 -23 -12 -18 -3 4 8 -25 -19 -64 -60
-39 -41 -71 -83 -71 -92 0 -23 -21 -69 -31 -69 -21 0 -28 -231 -10 -300 20
-72 34 -110 43 -110 4 0 8 -8 8 -18 0 -10 6 -24 13 -31 10 -11 9 -12 -1 -6
-11 6 -12 3 -3 -12 5 -11 12 -31 15 -44 3 -13 7 -35 10 -48 8 -38 74 -159 119
-221 35 -48 136 -153 156 -162 3 -2 16 -15 27 -30 20 -25 23 -26 48 -13 19 10
25 11 21 2 -4 -7 -1 -5 7 3 7 8 20 16 28 18 8 2 17 7 20 11 3 4 22 15 43 24
20 10 37 22 37 28 0 6 4 8 9 4 5 -3 16 1 24 9 8 8 17 12 21 9 3 -4 6 -1 6 5 0
7 4 12 10 12 5 0 34 11 64 25 30 14 60 25 65 25 6 0 11 5 11 10 0 6 7 10 15
10 8 0 15 5 15 10 0 6 6 10 14 10 8 0 16 7 20 15 3 8 12 15 21 15 8 0 15 5 15
10 0 6 7 10 15 10 8 0 15 7 15 15 0 8 6 14 13 12 6 -1 11 4 9 11 -1 8 1 11 6
8 4 -3 21 6 37 20 16 14 45 35 65 47 19 11 42 29 51 39 9 10 19 14 23 10 4 -4
7 -2 5 3 -3 15 12 45 23 45 6 0 21 11 34 25 13 14 20 25 16 25 -4 0 5 11 21
24 15 13 27 28 27 33 0 5 9 18 20 28 11 10 20 22 20 28 0 5 11 31 25 59 14 27
25 56 25 64 0 8 5 14 11 14 5 0 8 4 4 9 -3 5 -1 12 5 16 20 12 40 72 37 111
-4 38 -35 116 -49 122 -5 2 -8 8 -8 14 0 16 -40 48 -69 55 -25 6 -36 13 -72
46 -10 9 -26 17 -34 17 -8 0 -15 3 -15 8 0 7 -50 32 -73 36 -6 1 -18 5 -24 9
-8 5 -13 3 -13 -4 0 -8 -4 -8 -15 1 -12 10 -15 10 -15 -1 0 -11 -2 -11 -10 1
-5 8 -10 10 -10 4 0 -6 -11 -10 -25 -9 -14 2 -25 -1 -25 -6 0 -5 -5 -9 -11 -9
-5 0 -8 4 -4 9 3 5 1 12 -5 16 -5 3 -10 1 -10 -5 0 -7 -6 -10 -14 -7 -8 3 -17
1 -20 -6 -3 -8 -7 -9 -13 -2 -15 18 -38 10 -70 -25 -18 -19 -33 -39 -33 -44 0
-5 -8 -2 -17 5 -11 10 -14 10 -9 2 11 -19 -2 -16 -34 7 -16 11 -32 29 -35 40
-4 11 -11 18 -16 15 -5 -4 -9 -1 -9 4 0 6 -6 10 -12 8 -7 -1 -12 3 -11 10 2 7
-3 10 -10 7 -8 -3 -25 -1 -38 5 -15 5 -32 5 -41 0 -11 -6 -18 -4 -21 5 -4 10
-16 13 -36 10 -21 -4 -31 -1 -31 8 0 8 -3 9 -8 3 -9 -13 -32 -17 -32 -6 0 5
-13 8 -30 7 -16 -1 -31 2 -33 8 -2 6 -6 6 -10 -1z m123 -284 c85 -10 110 -17
157 -45 58 -35 87 -42 99 -23 13 22 111 57 175 63 47 5 84 2 140 -12 87 -22
117 -39 141 -80 17 -28 17 -30 -9 -53 -14 -13 -44 -49 -67 -80 -44 -60 -216
-218 -336 -309 -40 -30 -98 -77 -129 -104 -31 -27 -83 -66 -116 -88 l-59 -39
-17 48 c-9 26 -35 80 -57 118 -22 39 -48 97 -57 130 -9 33 -23 83 -31 110 -44
159 -53 196 -58 256 -5 57 -3 70 15 92 24 32 51 34 209 16z"/>
</g>
</svg>
