<svg xmlns="http://www.w3.org/2000/svg" viewBox="0 0 390 535">
    <path fill="#ff7b33" stroke="#1b2e41" stroke-width="7" stroke-linejoin="round" d="m11.688 201.145-.057.555c1.043 24.207 14.476 38.779 39.185 44.586 1.903 11.054 4.568 22.12 8.571 33.204 8.046 1.764 15.513 1.714 22.844 1.31 3.88-24.17 15.426-32.776 34.06-37.99l34.273.935-1.68 212.417c-5.65 18.481-14.507 29.836-38.739 33.205-.59 7.327-.789 14.779.788 22.865 10.803 4.157 21.63 7.057 32.462 9.19 31.045-3.934 62.353.526 93.563 1.205-.002-.016.005-.035.01-.05 11.06-1.907 22.123-4.595 33.188-8.577 1.77-8.043 1.74-15.503 1.308-22.838-24.148-3.912-32.753-15.457-37.978-34.06l3.018-212.399 34.289-.176c18.487 5.621 29.842 14.482 33.21 38.738 7.326.563 14.787.784 22.872-.81 4.217-10.994 7.154-22 9.302-33.009 24.83-5.262 38.585-19.525 40.148-43.702l-.022-.555.029-.252-.077-1.772.117-1.78-.023-.257.03-.545c-1.02-24.21-14.455-38.757-39.164-44.586-1.903-11.055-4.594-22.123-8.57-33.212-8.045-1.742-15.512-1.71-22.843-1.284-3.91 24.154-15.453 32.752-34.065 37.962l-34.273-.932-.232-39.612c5.644-18.48 14.505-29.836 38.73-33.215.593-7.32.787-14.775-.798-22.863-10.976-4.224-21.977-7.132-32.99-9.28-5.279-24.858-19.548-38.607-43.705-40.167l-.393-.001-1.98.084-1.985-.126-.386-.01c-24.2 1.02-38.758 14.452-44.579 39.183-11.065 1.907-22.128 4.575-33.21 8.56-1.753 8.038-1.718 15.5-1.293 22.836 24.153 3.91 32.752 15.463 37.986 34.063l-1.109 39.6-34.28.17c-18.516-5.62-29.867-14.479-33.22-38.71-7.313-.588-14.78-.786-22.861.78-4.252 10.995-7.158 22.002-9.31 33.012-24.827 5.278-38.584 19.527-40.167 43.704l.044.55-.05.253.097 1.783-.135 1.766zM238.457 524l-.036-.318c11.664-2.072 22.206-4.83 32.187-8.421l.697-.25.159-.724c1.88-8.538 1.73-16.522 1.337-23.207l-.063-1.071-1.06-.173c-24-3.885-31.92-15.472-36.849-32.91l2.997-210.891 32.77-.168c17.326 5.303 28.735 13.477 32.08 37.58l.147 1.068 1.078.084c3.813.291 6.782.424 9.627.424 4.873 0 9.325-.411 13.605-1.256l.727-.141.265-.692c3.853-10.043 6.863-20.64 9.197-32.367 25.211-5.615 38.784-20.663 40.34-44.737l-.017-.585.03-.264-.081-1.876.12-1.736-.03-.358.033-.355c-1.015-24.217-14.248-39.566-39.332-45.757-2.072-11.776-4.847-22.438-8.479-32.567l-.25-.701-.728-.158c-4.91-1.061-9.866-1.557-15.6-1.557-2.3 0-4.717.079-7.605.246l-1.075.062-.171 1.062c-3.887 24-15.474 31.915-32.91 36.832l-32.773-.89-.224-38.111c5.325-17.32 13.507-28.727 37.573-32.085l1.065-.149.087-1.07c.54-6.665.865-14.636-.82-23.23l-.142-.726-.69-.268c-9.923-3.818-20.512-6.823-32.35-9.174-5.628-25.226-20.676-38.804-44.738-40.359l-.474-.004-2.045.086-2.28-.138c-24.182 1.014-39.529 14.254-45.706 39.353-11.881 2.09-22.541 4.861-32.569 8.469l-.698.249-.157.725c-1.852 8.488-1.729 16.167-1.321 23.2l.062 1.074 1.062.172c23.986 3.884 31.913 15.469 36.854 32.909l-1.063 38.098-32.783.163c-17.338-5.297-28.754-13.467-32.086-37.551l-.148-1.066-1.072-.085c-3.714-.3-6.781-.438-9.657-.438-4.835 0-9.272.403-13.568 1.234l-.728.143-.267.69c-3.826 9.891-6.839 20.49-9.205 32.376-25.205 5.63-38.784 20.678-40.357 44.738l-.007.097.037.464-.045.236.105 1.95-.149 1.777.048.237-.046.449.006.098c1.039 24.113 14.28 39.46 39.353 45.625 2.092 11.902 4.87 22.56 8.48 32.56l.252.696.723.16c4.892 1.073 9.868 1.573 15.658 1.573h.002c2.249 0 4.643-.075 7.543-.234l1.079-.058.171-1.066c3.859-24.018 15.45-31.94 32.904-36.858l32.757.895-1.67 210.905c-5.327 17.327-13.512 28.739-37.585 32.085l-1.065.148-.087 1.072c-.563 7.017-.857 14.686.809 23.23l.141.73.694.266c10.089 3.882 20.78 6.907 32.685 9.253l.212.04.214-.028c8.455-1.069 17.537-1.592 27.765-1.592 12.117 0 24.483.735 36.443 1.445 9.556.566 19.437 1.153 29.156 1.365zm30.544-11.01c-9.976 3.54-20.538 6.246-32.262 8.267l-.13.022c-9.55-.217-19.274-.795-28.68-1.353-11.997-.712-24.404-1.448-36.602-1.448-10.256 0-19.379.518-27.885 1.586-11.394-2.253-21.654-5.142-31.333-8.817-1.374-7.513-1.19-14.378-.712-20.709 24.665-3.746 33.362-16.308 38.765-33.985l.06-.381 1.694-213.731-35.792-.978-.195.055c-17.812 4.985-30.57 13.394-34.844 37.998-2.38.117-4.411.174-6.327.174h-.002c-5.305 0-9.893-.433-14.36-1.358-3.522-9.891-6.227-20.458-8.261-32.274l-.15-.874-.863-.203c-24.63-5.79-37.11-19.934-38.147-43.242l.068-.66-.055-.271.121-1.58-.087-1.786.055-.275-.05-.638c1.553-23.255 14.344-37.121 39.099-42.384l.867-.185.17-.868c2.306-11.8 5.246-22.306 8.978-32.09 3.9-.707 7.94-1.051 12.329-1.051 2.524 0 5.209.11 8.378.347 3.733 24.687 16.304 33.367 34 38.739l.196.058 35.778-.178 1.15-41.098-.055-.197c-5.008-17.795-13.424-30.55-37.996-34.844-.335-6.346-.365-13.213 1.168-20.682 9.919-3.517 20.487-6.218 32.284-8.249l.875-.151.202-.864c5.807-24.688 19.982-37.167 43.33-38.149l2.23.135 2.122-.084.33.002c23.235 1.504 37.13 14.297 42.4 39.105l.183.867.869.17c11.753 2.29 22.253 5.221 32.067 8.949 1.384 7.537 1.2 14.392.724 20.706-24.664 3.759-33.361 16.322-38.76 33.996l-.06.196.24 41.114 35.776.968.195-.054c17.795-4.982 30.55-13.384 34.85-37.972 2.373-.125 4.424-.184 6.383-.184 5.254 0 9.822.428 14.306 1.344 3.544 10.02 6.248 20.59 8.26 32.282l.152.873.863.202c24.675 5.823 37.15 19.997 38.132 43.34l-.028.416.018.318-.113 1.702.072 1.812-.028.251.024.656c-1.505 23.192-14.29 37.085-39.087 42.338l-.867.184-.17.871c-2.273 11.646-5.21 22.152-8.973 32.09-3.888.717-7.939 1.065-12.36 1.065-2.505 0-5.118-.106-8.353-.337-3.746-24.698-16.313-33.387-33.993-38.762l-.196-.059-35.806.184-3.04 213.909.053.187c4.996 17.79 13.408 30.542 37.99 34.84.337 6.335.37 13.196-1.184 20.687z"/>
</svg>