<svg class="animated" id="freepik_stories-oops-404-error-with-a-broken-robot" xmlns="http://www.w3.org/2000/svg" viewBox="0 0 500 500" version="1.1"><style>@keyframes floating{0%,to{opacity:1;transform:translateY(0)}50%{transform:translateY(-10px)}}@keyframes shake{10%,90%{transform:translate3d(-1px,0,0)}20%,80%{transform:translate3d(2px,0,0)}30%,50%,70%{transform:translate3d(-4px,0,0)}40%,60%{transform:translate3d(4px,0,0)}}svg#freepik_stories-oops-404-error-with-a-broken-robot:not(.animated) .animable{opacity:0}</style><g id="freepik--Floor--inject-21" style="transform-origin:250px 346.54px 0" class="animable"><ellipse id="freepik--floor--inject-21" cx="250" cy="346.54" rx="222.67" ry="128.63" style="fill:#f5f5f5;transform-origin:250px 346.54px 0" class="animable"/></g><g id="freepik--Shadows--inject-21" style="transform-origin:241.902px 365.173px 0" class="animable"><path id="freepik--Shadow--inject-21" d="M438.45 332.2c-5.78-2.08-19.62-4.12-42.75-5.8-30.4-2.21-38.21-3.8-40.06 2.62L321 322.34c.25-8.13-5-16.31-15.74-22.51-21-12.13-55.07-12.13-76.08 0s-21 31.8 0 43.93c12.23 7.06 28.88 10 44.81 8.84l24.45 28.22s-3.65 2.26 1 8.61c5 6.82 30.46 41.32 34.39 44.71 6.19 5.34 18.13 9.16 34.8-.32 19.06-10.84-.56-21-11.71-28.65-13.48-9.26-42.43-28.95-46.09-31.62-2.79-2-5.64.79-5.64.79l-20.77-23.11a67.91 67.91 0 0 0 20.86-7.47c8.05-4.65 13-10.4 14.88-16.41l34.07 6.79s-1.56 3 5.65 5c6.17 1.67 52.54 13.47 60.81 12.46 8.06-1 14.56-5.7 18.63-10.4 4.98-5.8 1.97-7.97-.87-9z" style="fill:#e0e0e0;transform-origin:327.706px 365.173px 0" class="animable"/><g id="freepik--shadows--inject-21" style="transform-origin:125.045px 364.465px 0" class="animable"><path d="M155.52 409.4a3.86 3.86 0 0 1-3.73-3.08l-.87-4.56a50.84 50.84 0 0 1-5.78-1.42H145l-8 3.72a4.49 4.49 0 0 1-1.88.4 4.61 4.61 0 0 1-2.27-.58l-8-4.62a3.25 3.25 0 0 1-1.66-2.64 3.2 3.2 0 0 1 1.39-2.78l4.85-3.49a18.77 18.77 0 0 1-1.22-1.83l-10.2-.65a3.65 3.65 0 0 1-3.42-3.64v-6a3.65 3.65 0 0 1 3.42-3.64l10.2-.65a18.77 18.77 0 0 1 1.22-1.83l-4.85-3.49a3.17 3.17 0 0 1 .27-5.42l8-4.62a4.73 4.73 0 0 1 4.15-.19l8 3.73h.11a51.55 51.55 0 0 1 5.85-1.44l.87-4.56a3.83 3.83 0 0 1 3.73-3.08h11.77a3.83 3.83 0 0 1 3.72 3.08l.87 4.56a50.84 50.84 0 0 1 5.78 1.42h.15l8-3.73a4.75 4.75 0 0 1 4.16.19l8 4.62a3.17 3.17 0 0 1 .27 5.42l-4.84 3.49a20.64 20.64 0 0 1 1.21 1.83l10.2.65a3.65 3.65 0 0 1 3.42 3.64v6a3.65 3.65 0 0 1-3.42 3.64l-10.2.65a20.64 20.64 0 0 1-1.21 1.83l4.84 3.48a3.18 3.18 0 0 1-.27 5.43l-8 4.62a4.68 4.68 0 0 1-2.28.58 4.57 4.57 0 0 1-1.87-.39l-8-3.73h-.08a51.55 51.55 0 0 1-5.85 1.44l-.87 4.56a3.84 3.84 0 0 1-3.72 3.08zm5.88-36.6a24.9 24.9 0 0 0-12.23 2.88c-2.74 1.59-4.31 3.62-4.31 5.57s1.57 4 4.31 5.57a27.32 27.32 0 0 0 24.46 0c2.74-1.58 4.31-3.61 4.31-5.57s-1.57-4-4.31-5.57a24.9 24.9 0 0 0-12.23-2.88z" style="fill:#e0e0e0;transform-origin:161.43px 381.22px 0" id="elaujo8ptuwxe" class="animable"/><path d="M70.79 365.73a3.42 3.42 0 0 1-.79-.09l-9-2.14a3.14 3.14 0 0 1-2.14-1.73 3.31 3.31 0 0 1 .07-2.91l1.36-2.7c-.83-.45-1.61-.93-2.35-1.43l-8.06 1.35a4 4 0 0 1-.7.06 3.84 3.84 0 0 1-3.12-1.46l-3.49-4.86-.75-.45.14-2.1.1-.19a2.81 2.81 0 0 1 .26-.62l.07-.11a3.62 3.62 0 0 1 1.94-1.46l6.22-2v-.61l-6.42-2a3.09 3.09 0 0 1-2.1-2.37l-.06-.16v-.42a3.52 3.52 0 0 1 .67-2l3.24-4.51a4.23 4.23 0 0 1 3.3-1.72 3.66 3.66 0 0 1 .57.05l8.25 1.36c.55-.38 1.17-.77 1.83-1.15l.48-.27-1.46-2.88a3 3 0 0 1-.32-1.39 3.3 3.3 0 0 1 2.66-3.1l8.61-2.06a4.28 4.28 0 0 1 1-.12 3.91 3.91 0 0 1 2.84 1.12l3.73 3.93c.82 0 1.69-.07 2.55-.07s1.8 0 2.71.08l3.53-3.72a4.44 4.44 0 0 1 3.1-1.35 3.31 3.31 0 0 1 .83.1l8.93 2.13a3.13 3.13 0 0 1 2.42 2.68v.49a3.41 3.41 0 0 1-.39 1.5l-1.34 2.66.43.24a22 22 0 0 1 1.9 1.2l8.07-1.36a4.23 4.23 0 0 1 .7-.06 3.81 3.81 0 0 1 3.13 1.47l3.57 5a3 3 0 0 1 .56 1.73v.17a3.32 3.32 0 0 1-2.44 2.91l-6.18 2v.61l6.4 2a3.06 3.06 0 0 1 2.17 2.94 3.51 3.51 0 0 1-.64 2l-3.27 4.56a4.18 4.18 0 0 1-3.29 1.72 3.81 3.81 0 0 1-.59-.05l-8.19-1.38a26.06 26.06 0 0 1-2.32 1.43l1.45 2.88a3 3 0 0 1 0 2.62 3.46 3.46 0 0 1-2.36 1.87l-8.64 2.06a4.27 4.27 0 0 1-1 .13 3.87 3.87 0 0 1-2.83-1.12l-3.75-3.94c-.83 0-1.72.07-2.6.07s-1.77 0-2.65-.07l-3.53 3.71a4.4 4.4 0 0 1-3.02 1.3zM68 340.23a2.65 2.65 0 0 0-.21.26c-.1.12-.17.23-.24.33l-.16.27a3 3 0 0 0 .27 3.5 7.13 7.13 0 0 0 1.56 1.54 10.34 10.34 0 0 0 1.1.71 20.46 20.46 0 0 0 9.79 2.28 23.49 23.49 0 0 0 5.41-.62 16.79 16.79 0 0 0 4.36-1.66 11.44 11.44 0 0 0 1.06-.68 7 7 0 0 0 1.78-1.84l.22-.38.09-.22a3 3 0 0 0-.51-3c-1.94-2.71-6.94-4.53-12.44-4.53a23.49 23.49 0 0 0-5.41.62 13.51 13.51 0 0 0-6.41 3.2z" style="fill:#e0e0e0;transform-origin:79.945px 342.656px 0" id="elxqr7bi1cgna" class="animable"/></g></g><g id="freepik--Gears--inject-21" style="transform-origin:125.1px 356.05px 0" class="animable"><g id="freepik--gears--inject-21" style="transform-origin:125.1px 356.05px 0" class="animable"><path d="M205.67 369.57v-4.77a1.08 1.08 0 0 0-1-1.06l-7.6-.48V352.6a.64.64 0 0 0-.37-.58l-8-4.62a2.11 2.11 0 0 0-1.77-.08l-8.11 3.76a3 3 0 0 1-1.86.11 47.06 47.06 0 0 0-6.3-1.5 1.53 1.53 0 0 1-1.17-1.14l-1-5.35a1.25 1.25 0 0 0-1.18-1h-11.79a1.25 1.25 0 0 0-1.19 1l-1 5.35a1.52 1.52 0 0 1-1.17 1.14 47.43 47.43 0 0 0-6.3 1.5 2.93 2.93 0 0 1-1.85-.12l-8.12-3.75a2.14 2.14 0 0 0-1.77.07l-8 4.63a.66.66 0 0 0-.37.57v10.67l-7.59.48a1.08 1.08 0 0 0-1 1.06v16.12c0 .13.1.23.14.34a1 1 0 0 0 .16.38 1.1 1.1 0 0 0 .51.24c.07 0 .11.09.19.09h.14l7.45.47v10.7a.56.56 0 0 0 .06.21.81.81 0 0 0 .28.27l8 4.62a1.69 1.69 0 0 0 .77.2h.21a1.31 1.31 0 0 0 .28 0v-.05a1.86 1.86 0 0 0 .49-.08l8.12-3.76a2.93 2.93 0 0 1 1.85-.11 49.44 49.44 0 0 0 6.3 1.5 1.53 1.53 0 0 1 1.18 1.14l1 5.34a1.07 1.07 0 0 0 .2.32v.13c0 .06.11.09.16.14a.7.7 0 0 0 .16.14 1.11 1.11 0 0 0 .67.25h11.77a1.18 1.18 0 0 0 .74-.27 1.19 1.19 0 0 0 .44-.7l1-5.34a1.52 1.52 0 0 1 1.17-1.14 48.65 48.65 0 0 0 6.3-1.5 3 3 0 0 1 1.86.11l8.11 3.76a1.87 1.87 0 0 0 .76.14 2 2 0 0 0 1-.21l8-4.62a.65.65 0 0 0 .37-.55v-10.7l7.6-.48a1.07 1.07 0 0 0 1-1.06v-11.11a.76.76 0 0 0 .07-.16zm-29.18 5a16.86 16.86 0 0 1-1.56 1c-7.47 4.31-19.58 4.31-27.05 0a15.79 15.79 0 0 1-1.57-1c.48-.34 1-.67 1.57-1 7.47-4.31 19.58-4.31 27.05 0 .56.32 1.07.65 1.56.99z" style="fill:#37474f;transform-origin:161.415px 372.8px 0" id="el20txpotvrs2" class="animable"/><path d="M205.7 369.78v11.11a1.08 1.08 0 0 1-1 1.06l-7.6.48v10.7a.65.65 0 0 1-.37.55l-8 4.62a2 2 0 0 1-1 .21 1.87 1.87 0 0 1-.76-.14l-8.11-3.76a2.23 2.23 0 0 0-.76-.18 2.81 2.81 0 0 0-1.1.08 47 47 0 0 1-6.3 1.49 1.51 1.51 0 0 0-.49.21v.06a1.41 1.41 0 0 0-.68.88l-1 5.34a1.18 1.18 0 0 1-.43.7 1.23 1.23 0 0 1-.75.27H155.3a1.22 1.22 0 0 1-.77-.5v-.13c-.07-.11-.18-.19-.2-.32l-1-5.34a1.41 1.41 0 0 0-.48-.77 1.52 1.52 0 0 0-.7-.36 47.78 47.78 0 0 1-6.3-1.49 2.82 2.82 0 0 0-1.24-.06 2.73 2.73 0 0 0-.61.14l-8.12 3.76a1.79 1.79 0 0 1-.49.08v.05a2 2 0 0 1-1.26-.21l-8-4.62a1.26 1.26 0 0 1-.17-.13.91.91 0 0 1-.13-.16.67.67 0 0 1-.07-.24v-10.7l-1.39-.1-6.07-.38h-.14a1.08 1.08 0 0 1-1-1v-10.22a1.08 1.08 0 0 0 1 1.06l10.67.67a2 2 0 0 1 1.45 1 16 16 0 0 0 2.26 3.15.83.83 0 0 1-.12 1.29l-6.42 4.53a.59.59 0 0 0 0 1.08l8 4.63a2.14 2.14 0 0 0 1.77.07l8.11-3.75a2.9 2.9 0 0 1 1.86-.11 49 49 0 0 0 6.3 1.49 1.56 1.56 0 0 1 1.18 1.14l1 5.35a1.27 1.27 0 0 0 1.19 1h11.77a1.25 1.25 0 0 0 1.18-1l1-5.35a1.55 1.55 0 0 1 1.17-1.14 47.06 47.06 0 0 0 6.3-1.5 3 3 0 0 1 1.86.12l8.11 3.75a2.14 2.14 0 0 0 1.77-.07l8-4.63a.59.59 0 0 0 0-1.08l-6.34-4.57a.84.84 0 0 1-.12-1.3 16.15 16.15 0 0 0 2.27-3.14 2 2 0 0 1 1.44-1l10.67-.67a1.08 1.08 0 0 0 1-1.06v-1.19a.76.76 0 0 1 .21.25z" style="fill:#263238;transform-origin:161.43px 386.495px 0" id="elqgvl0agnfrc" class="animable"/><path d="M197.08 352.6v10.66l-3.07-.19a2 2 0 0 1-1.44-1 15.86 15.86 0 0 0-2.27-3.07.85.85 0 0 1 .12-1.31l6.34-4.56a.69.69 0 0 0 .32-.5z" style="fill:#263238;transform-origin:193.563px 357.93px 0" id="elvoz5qdyq0pa" class="animable"/><path d="M132.5 359a15.4 15.4 0 0 0-2.26 3.14 2 2 0 0 1-1.45 1l-3.06.19v-10.75a.67.67 0 0 0 .32.52l6.34 4.56a.85.85 0 0 1 .11 1.34z" style="fill:#263238;transform-origin:129.253px 357.955px 0" id="elg83n48p579c" class="animable"/><path d="m134.1 347.39-8 4.63a.59.59 0 0 0 0 1.08l6.34 4.57a.84.84 0 0 1 .12 1.3 15.4 15.4 0 0 0-2.26 3.14 2 2 0 0 1-1.45 1l-10.66.67a1.08 1.08 0 0 0-1 1.06v6a1.08 1.08 0 0 0 1 1.06l10.66.67a2 2 0 0 1 1.45 1 15.4 15.4 0 0 0 2.26 3.14.85.85 0 0 1-.12 1.31l-6.44 4.44a.6.6 0 0 0 0 1.08l8 4.63a2.14 2.14 0 0 0 1.77.07l8.12-3.75a2.94 2.94 0 0 1 1.85-.12 47.43 47.43 0 0 0 6.3 1.5 1.52 1.52 0 0 1 1.17 1.14l1 5.35a1.25 1.25 0 0 0 1.19 1h11.77a1.25 1.25 0 0 0 1.18-1l1-5.35a1.53 1.53 0 0 1 1.17-1.14 47.06 47.06 0 0 0 6.3-1.5 3 3 0 0 1 1.86.12l8.11 3.75a2.14 2.14 0 0 0 1.77-.07l8-4.63a.59.59 0 0 0 0-1.08l-6.34-4.56a.85.85 0 0 1-.12-1.31 15.86 15.86 0 0 0 2.27-3.14 2 2 0 0 1 1.44-1l10.67-.67a1.08 1.08 0 0 0 1-1.06v-6a1.08 1.08 0 0 0-1-1.06l-10.48-.59a2 2 0 0 1-1.44-1 15.86 15.86 0 0 0-2.26-3.07.84.84 0 0 1 .12-1.3l6.34-4.57a.59.59 0 0 0 0-1.08l-8-4.62a2.11 2.11 0 0 0-1.77-.08l-8.11 3.76a3 3 0 0 1-1.86.11 47.06 47.06 0 0 0-6.3-1.5 1.53 1.53 0 0 1-1.17-1.14l-1-5.35a1.25 1.25 0 0 0-1.18-1h-11.85a1.25 1.25 0 0 0-1.19 1l-1 5.35a1.52 1.52 0 0 1-1.17 1.14 47.43 47.43 0 0 0-6.3 1.5 2.93 2.93 0 0 1-1.85-.12l-8.12-3.75a2.14 2.14 0 0 0-1.79.04zM174.93 360c7.46 4.31 7.46 11.31 0 15.62s-19.58 4.31-27.05 0-7.47-11.31 0-15.62 19.58-4.34 27.05 0z" style="fill:#455a64;transform-origin:161.335px 367.795px 0" id="elv10bxfmn23" class="animable"/><path d="M125.72 383a.67.67 0 0 1 .32-.53l3.19-2.3v-7.57a1.36 1.36 0 0 0-.44-.11l-10.67-.67a1.08 1.08 0 0 1-1-1.06v10.15a1.08 1.08 0 0 0 1 1h.14l6.07.38 1.39.1z" style="fill:#37474f;transform-origin:123.175px 376.88px 0" id="el0rz4qpsamuk" class="animable"/><path d="M144.6 384.32a2.66 2.66 0 0 0-.62.17l-8.11 3.75a2.08 2.08 0 0 1-1 .14v10.13a2.44 2.44 0 0 0 .54 0v-.05a1.79 1.79 0 0 0 .49-.08l8.12-3.76a2.49 2.49 0 0 1 .61-.14z" style="fill:#37474f;transform-origin:139.75px 391.423px 0" id="el8n3ui06gt9l" class="animable"/><path d="M154.48 392.74a1.37 1.37 0 0 1-.15-.38l-1-5.35a1.59 1.59 0 0 0-.16-.41v10.15a1.4 1.4 0 0 1 .16.4l1 5.34a.68.68 0 0 0 .15.26z" style="fill:#37474f;transform-origin:153.825px 394.675px 0" id="elgvv87de3ot" class="animable"/><g id="elk31ueskx5ce"><path d="M169.65 386.61a1.24 1.24 0 0 0-.16.4l-1 5.35a1 1 0 0 1-.15.38v10.13a1 1 0 0 0 .15-.38l1-5.34a.82.82 0 0 1 .16-.37z" style="opacity:.15;transform-origin:168.995px 394.74px 0" class="animable" id="elkjvjofixbk"/></g><g id="elmdk0nmvn5p"><path d="M188 388.37a2 2 0 0 1-1-.13l-8.11-3.75a2.58 2.58 0 0 0-.61-.17v10.14a2.18 2.18 0 0 1 .61.16l8.11 3.76a1.87 1.87 0 0 0 .76.14h.24z" style="opacity:.15;transform-origin:183.14px 391.42px 0" class="animable" id="eln7vujrkbmra"/></g><g id="eljd6bekxau6"><path d="m204.68 371.82-10.67.67a1.36 1.36 0 0 0-.44.11v7.56l3.19 2.3a.67.67 0 0 1 .32.54v-.57l7.6-.48a1.08 1.08 0 0 0 1-1.06v-11.11a.76.76 0 0 0 0-.21v1.19a1.08 1.08 0 0 1-1 1.06z" style="opacity:.15;transform-origin:199.629px 376.285px 0" class="animable" id="elxfagnm8vdd"/></g><path d="M44.54 334.49v9.07a.4.4 0 0 0 .08.23l3.56 5a1.45 1.45 0 0 0 1.31.38l8.21-1.38a2.27 2.27 0 0 1 1.48.25 21.82 21.82 0 0 0 2 1.27v6.81a.59.59 0 0 0 .46.5l8.95 2.14a1.71 1.71 0 0 0 1.41-.56l3.69-3.89a2.23 2.23 0 0 1 1.51-.65 45.64 45.64 0 0 0 5.61 0 1.92 1.92 0 0 1 1.35.42l4.12 4.33a1.59 1.59 0 0 0 1.39.26l8.61-2.05c.42-.1.69-.37.67-.65v-6.72c.59-.34 1.15-.69 1.68-1.06a2.64 2.64 0 0 1 1.62-.46l8.48 1.42a1.56 1.56 0 0 0 1.34-.62l3.24-4.53a.82.82 0 0 0 .18-.52v-6.54a.37.37 0 0 0 .07-.2v-12.91a.4.4 0 0 0-.08-.22l-3.56-5a1.48 1.48 0 0 0-1.31-.38l-8.21 1.39a2.4 2.4 0 0 1-1.48-.25 21.88 21.88 0 0 0-2-1.28v-6.68a.58.58 0 0 0-.46-.59l-8.95-2.14a1.71 1.71 0 0 0-1.44.53l-3.68 3.88a2.25 2.25 0 0 1-1.51.66 43.75 43.75 0 0 0-5.61 0 2 2 0 0 1-1.35-.42L71.8 309a1.65 1.65 0 0 0-1.39-.26l-8.61 2.06c-.42.1-.68.36-.67.63v6.74c-.58.34-1.15.7-1.68 1.06a2.65 2.65 0 0 1-1.62.47l-8.48-1.43a1.57 1.57 0 0 0-1.34.63l-3.24 4.52a.9.9 0 0 0-.18.5v10.39a.39.39 0 0 0-.06.2zm46.58 1.12a19.13 19.13 0 0 1-5.05 1.93c-6 1.44-12.71.56-17.07-1.92a12.22 12.22 0 0 1-1.36-.88c.39-.27.81-.54 1.26-.8 6.14-3.55 16.1-3.55 22.25 0 .46.27.89.54 1.28.81a12.9 12.9 0 0 1-1.31.86z" style="fill:#37474f;transform-origin:80.045px 333.717px 0" id="elnkfpmipyiuq" class="animable"/><path d="M97 317.08c.69.32 1.35.66 2 1v-6.68a.93.93 0 0 1-.1.34L96.68 316a.78.78 0 0 0 .32 1.08z" style="fill:#263238;transform-origin:97.7887px 314.74px 0" id="elibklz46ove" class="animable"/><g id="elmn0ohfnqi1e"><path d="M106.82 327.7a8.83 8.83 0 0 1 0 2.81.92.92 0 0 0 .57 1l7.75 2.44a.51.51 0 0 1 .36.5v2.51a.39.39 0 0 0 .06-.18v-12.93c0 .23-.25.46-.63.58l-7.31 2.32a1 1 0 0 0-.8.95z" style="opacity:.15;transform-origin:111.184px 330.405px 0" class="animable" id="elq7p76fzp4tb"/></g><g id="elb72ot2suc9k"><path d="M102 338.65v9.08a1.55 1.55 0 0 1 .31 0l8.48 1.42a.92.92 0 0 0 .43 0v-9.07a1.17 1.17 0 0 1-.45 0l-8.48-1.43a.91.91 0 0 0-.29 0z" style="opacity:.15;transform-origin:106.61px 343.907px 0" class="animable" id="elfr2jmwr6c54"/></g><path d="M99 349.26c.58-.34 1.15-.69 1.68-1.06a3 3 0 0 1 1.31-.47v-9.08a2.86 2.86 0 0 0-1.32.48 25.6 25.6 0 0 1-3.44 2c-.5.25-.78.68-.62 1l2.33 4.61a.49.49 0 0 1 0 .19c.06.26.06 2.33.06 2.33z" style="fill:#263238;transform-origin:99.2775px 343.955px 0" id="ely29jzv1z7ga" class="animable"/><g id="eli3gj0at7fy"><path d="M83.67 344.72v9.08a1.29 1.29 0 0 1 .52.29l4.12 4.33a1.23 1.23 0 0 0 .75.3v-9.08a1.26 1.26 0 0 1-.77-.29L84.17 345a1.2 1.2 0 0 0-.5-.28z" style="opacity:.15;transform-origin:86.365px 351.72px 0" class="animable" id="elz3vjji99z9e"/></g><path d="M76.69 344.67v9.08a1.6 1.6 0 0 1 .54-.09 45.64 45.64 0 0 0 5.61 0 2.16 2.16 0 0 1 .83.13v-9.08a2 2 0 0 0-.85-.13 45.48 45.48 0 0 1-5.6 0 1.51 1.51 0 0 0-.53.09z" style="fill:#263238;transform-origin:80.18px 349.183px 0" id="elw6fd3i4x8kj" class="animable"/><g id="elnnhhftr902l"><path d="M71.21 349.6v9.08a1.94 1.94 0 0 0 .82-.48l3.69-3.89a2.47 2.47 0 0 1 1-.56v-9.08a2.34 2.34 0 0 0-1 .57L72 349.12a2 2 0 0 1-.79.48z" style="opacity:.15;transform-origin:73.965px 351.675px 0" class="animable" id="eluedvvbshyw8"/></g><path d="M61.18 347v9.06a.59.59 0 0 0 .46.5l8.95 2.13a1.18 1.18 0 0 0 .61 0v-9.09a1.27 1.27 0 0 1-.63 0l-8.95-2.14a.55.55 0 0 1-.44-.46z" style="fill:#37474f;transform-origin:66.19px 352.865px 0" id="elv43wz9ejxx" class="animable"/><g id="el7b35cqol2d5"><path d="M58.29 338.66v9.08a2.08 2.08 0 0 1 .9.27 21.82 21.82 0 0 0 2 1.27v-2.36a.87.87 0 0 1 .09-.37l2.15-4.26a.76.76 0 0 0-.27-1.07 25.73 25.73 0 0 1-4-2.28 1.76 1.76 0 0 0-.87-.28z" style="opacity:.15;transform-origin:60.9191px 343.97px 0" class="animable" id="elctnmpx5d9ct"/></g><path d="M44.54 334.5v9.06a.4.4 0 0 0 .08.23l3.57 5a1.07 1.07 0 0 0 .61.35V340a1.09 1.09 0 0 1-.64-.36l-3.56-5a.33.33 0 0 1-.06-.14z" style="fill:#37474f;transform-origin:46.67px 341.82px 0" id="eltgyl7qwi889" class="animable"/><path d="m98.46 310.79-8.95-2.14a1.71 1.71 0 0 0-1.44.53l-3.68 3.88a2.25 2.25 0 0 1-1.51.66 43.75 43.75 0 0 0-5.61 0 2 2 0 0 1-1.35-.42L71.8 309a1.65 1.65 0 0 0-1.39-.26l-8.61 2.06c-.42.1-.68.36-.67.63a.39.39 0 0 0 0 .18l2.33 4.63c.17.32-.11.77-.62 1s-1.19.6-1.75.91-1.15.7-1.68 1.06a2.65 2.65 0 0 1-1.62.47l-8.48-1.43a1.57 1.57 0 0 0-1.34.63l-3.24 4.52a.9.9 0 0 0-.18.5.49.49 0 0 0 .36.47l7.74 2.46a.9.9 0 0 1 .58 1 8.77 8.77 0 0 0 0 2.8c.07.37-.28.8-.8 1l-7.31 2.31a1 1 0 0 0-.56.39.39.39 0 0 0-.06.2.36.36 0 0 0 .07.22l3.57 5a1.41 1.41 0 0 0 1.3.38l8.22-1.38a2.19 2.19 0 0 1 1.47.26 25.73 25.73 0 0 0 4 2.28.77.77 0 0 1 .27 1.08l-2.14 4.25a.62.62 0 0 0 .36 1l8.95 2.14a1.74 1.74 0 0 0 1.44-.53l3.69-3.88a2.15 2.15 0 0 1 1.51-.65 47.56 47.56 0 0 0 5.6 0 2 2 0 0 1 1.35.42l4.13 4.34a1.62 1.62 0 0 0 1.38.26l8.61-2.06c.51-.13.8-.49.63-.82l-2.33-4.61c-.16-.33.12-.77.62-1a24.59 24.59 0 0 0 3.44-2 2.54 2.54 0 0 1 1.61-.46l8.48 1.43a1.55 1.55 0 0 0 1.34-.63l3.25-4.52a1 1 0 0 0 .18-.5.49.49 0 0 0-.37-.49l-7.74-2.45a.91.91 0 0 1-.57-1 8.77 8.77 0 0 0 0-2.8 1 1 0 0 1 .8-1l7.31-2.32c.38-.12.61-.35.63-.58a.4.4 0 0 0-.08-.22l-3.56-5a1.48 1.48 0 0 0-1.31-.38l-8.21 1.39a2.4 2.4 0 0 1-1.48-.25 21.88 21.88 0 0 0-2-1.28c-.63-.35-1.29-.69-2-1a.78.78 0 0 1-.27-1.08l2.15-4.25a.75.75 0 0 0 .09-.34.58.58 0 0 0-.43-.71zM74 320.76c8-1.93 17.23.28 20.56 4.91a5.58 5.58 0 0 1 .8 5.5 1.08 1.08 0 0 1-.08.19l-.09.19a.76.76 0 0 1-.09.18 8.79 8.79 0 0 1-2.69 3 12.9 12.9 0 0 1-1.31.86 19.13 19.13 0 0 1-5.05 1.93c-6 1.44-12.71.56-17.07-1.92a12.22 12.22 0 0 1-1.36-.88 9.92 9.92 0 0 1-2.13-2.11 5.59 5.59 0 0 1-.43-6.28l.08-.14.19-.3c.11-.16.22-.32.34-.47l.31-.39.16-.16.22-.23a15.72 15.72 0 0 1 7.64-3.88z" style="fill:#455a64;transform-origin:80.03px 329.207px 0" id="elthgqy2gm1go" class="animable"/></g></g><g id="freepik--Robot--inject-21" style="transform-origin:311.22px 263.412px 0;animation:1.5s Infinite linear floating;animation-delay:0s" class="animable"><g id="freepik--robot--inject-21" style="transform-origin:311.22px 263.412px 0" class="animable"><path d="M364.78 326.84a6.24 6.24 0 0 1-1.13-.1l-63.72-12a6 6 0 1 1 2.24-11.81l63.72 12a6 6 0 0 1-1.11 11.92z" style="fill:#455a64;transform-origin:332.982px 314.838px 0" id="el4swe0ely9er" class="animable"/><path d="M351.12 325H351c-2.08-.39-3-2.93-2.4-6.3.68-3.66 3.08-7 6.32-6.42a.6.6 0 1 1-.23 1.18c-2.45-.46-4.35 2.47-4.91 5.46-.41 2.15-.13 4.6 1.44 4.9a.6.6 0 0 1-.11 1.19z" style="fill:#37474f;transform-origin:351.913px 318.612px 0" id="el864am2sbtix" class="animable"/><path d="M340.51 323h-.11a3 3 0 0 1-2.26-2.13c-.89-2.54 0-6.61 2-8.89a4.32 4.32 0 0 1 4.18-1.7.61.61 0 0 1-.22 1.19 3.14 3.14 0 0 0-3 1.29c-1.66 1.93-2.5 5.61-1.76 7.71a1.81 1.81 0 0 0 1.34 1.35.6.6 0 0 1-.11 1.19z" style="fill:#37474f;transform-origin:341.27px 316.616px 0" id="elqgu82ush88q" class="animable"/><path d="M329.9 321h-.12c-2.07-.39-3-2.93-2.4-6.31.69-3.65 3.08-7 6.32-6.41a.6.6 0 1 1-.22 1.18c-2.46-.47-4.35 2.47-4.92 5.46-.4 2.15-.13 4.6 1.45 4.89a.62.62 0 0 1 .48.71.61.61 0 0 1-.59.48z" style="fill:#37474f;transform-origin:330.695px 314.606px 0" id="elyabaorc0ywi" class="animable"/><path d="M319.28 319h-.11a3 3 0 0 1-2.26-2.14c-.89-2.53 0-6.6 2-8.89a4.32 4.32 0 0 1 4.19-1.69.6.6 0 1 1-.23 1.18 3.18 3.18 0 0 0-3.05 1.3c-1.66 1.93-2.5 5.6-1.76 7.71a1.81 1.81 0 0 0 1.34 1.35.6.6 0 0 1-.11 1.19z" style="fill:#37474f;transform-origin:320.076px 312.615px 0" id="elno7gvzll52" class="animable"/><path d="M308.67 317h-.11c-2.08-.39-3.05-2.92-2.41-6.3.69-3.65 3.09-7 6.32-6.42a.61.61 0 0 1-.22 1.19c-2.44-.46-4.35 2.46-4.92 5.45-.4 2.15-.12 4.6 1.45 4.9a.6.6 0 0 1 .48.7.62.62 0 0 1-.59.48z" style="fill:#37474f;transform-origin:309.425px 310.607px 0" id="elzob9puc3m6a" class="animable"/><g id="eleezmcdk2knn"><path d="M295 308.82a6 6 0 0 0 4.89 5.88l63.72 12a6.24 6.24 0 0 0 1.13.1 6 6 0 0 0 5.9-4.9v-.21z" style="opacity:.15;transform-origin:332.82px 317.81px 0" class="animable" id="eldtcj7d7zyz"/></g><path d="M433.42 274.36c-4.76-1.26-12.25-1.65-18.56 3.38-5.14 4.1-11.08 22.59-13.07 29l-33.69-.08a8.67 8.67 0 0 0-4.93 2.34c-5.64 5.6-6.71 11.86-6.23 17.82.3 3.68 2.8 6.22 4.59 6.53.54.11 44.86 9.08 51.15 10.19 10.47 1.85 8.19 1.83 14.38-7.05 4.07-5.83 4.07-14.45 4.07-20.15s2.56-15.13 4.72-22.52 2.33-18.2-2.43-19.46z" style="fill:#ff7b33;transform-origin:397.069px 309.031px 0" id="elf1gaauo5zlj" class="animable"/><g id="el4euzzm6kbn1"><path d="M426.66 274.49c-5.6 2.08-9.07 7-10.77 14.53s-.19 13.76-1.78 24.63a64.19 64.19 0 0 1-5.6 17.05c-2.16 4.09-5.23 5.79-11 4.79s-26.15-4-31.48-6.47a8.27 8.27 0 0 1-4.9-7.82 29.28 29.28 0 0 0 10.12-1.86c4.55-1.92 4.21-4.1 4.07-5.29l-5.5-7.39h-1.7a8.67 8.67 0 0 0-4.93 2.34c-5.64 5.6-6.71 11.86-6.23 17.82.3 3.68 2.8 6.22 4.59 6.53.54.11 44.86 9.08 51.15 10.19 10.47 1.85 8.19 1.83 14.38-7.05 4.07-5.83 4.07-14.45 4.07-20.15s2.56-15.13 4.72-22.52a37.43 37.43 0 0 0 1.37-7.78c-4.24-6.94-8.4-12.37-10.58-11.55z" style="opacity:.15;transform-origin:397.049px 309.461px 0" class="animable" id="elf6615ud1sp"/></g><path d="m433.42 274.36-.93-.23a25.25 25.25 0 0 0-3.12-.48c-7.19 1.44-10.58 7.8-11.61 16.54s-.09 18.53-.73 24.62-4.43 15.89-4.18 22.36A11.36 11.36 0 0 0 415 344c7.79 1.37 6.35.67 12-7.47 4.07-5.83 4.07-14.45 4.07-20.15s2.56-15.13 4.72-22.52 2.39-18.24-2.37-19.5z" style="fill:#455a64;transform-origin:425.051px 309.103px 0" id="elzffkxxxcvni" class="animable"/><g id="elzlfs39ga64b"><path d="M401.79 306.74a150.84 150.84 0 0 0-3.21 16.69 61.1 61.1 0 0 1 0-16.69z" style="opacity:.15;transform-origin:399.899px 315.085px 0" class="animable" id="elx825lt8l47o"/></g><path d="M423 284.35c-3.27 8.4-2 21.16-2.72 29.42s-4.46 19.82-3.89 24.19 2.76 7.42 6.1 5.47a14 14 0 0 0 4.17-5c1-1.93 1.69-4 2.17-5.19 2.31-5.48 2.31-12.19 2.31-16.91 0-5.7 2.56-15.13 4.72-22.52 1.62-5.53 2.12-13 .27-16.88-1.44-3.2-9.54-1.81-13.13 7.42z" style="fill:#37474f;transform-origin:426.822px 309.703px 0" id="elyx2pz7239gn" class="animable"/><path d="M420.56 305.41v1.17l14-8.07c.12-.46.25-.92.38-1.38z" style="fill:#263238;transform-origin:427.75px 301.855px 0" id="el3ebtslfikuo" class="animable"/><path d="m436.42 277.63-13.87 8c-.14.45-.27.91-.4 1.39l14.58-8.42c-.09-.33-.2-.66-.31-.97z" style="fill:#263238;transform-origin:429.44px 282.325px 0" id="elhoxq6as1jft" class="animable"/><path d="m433 304.45-12.58 7.26c0 .41-.05.81-.07 1.2l12.33-7.12c.09-.45.2-.89.32-1.34z" style="fill:#263238;transform-origin:426.675px 308.68px 0" id="elhlnpj8tw00f" class="animable"/><path d="m418 326.65 13.13-7.58v-1.16l-12.86 7.43c-.09.44-.18.88-.27 1.31z" style="fill:#263238;transform-origin:424.565px 322.28px 0" id="ela8679egdzus" class="animable"/><path d="M420.68 299.14v1.17l15.87-9.16c.09-.43.17-.86.25-1.3z" style="fill:#263238;transform-origin:428.74px 295.08px 0" id="elb1tjconfg3w" class="animable"/><path d="M419.66 318.35c-.08.43-.15.86-.23 1.29l12-6.91c.05-.41.11-.83.17-1.25z" style="fill:#263238;transform-origin:425.515px 315.56px 0" id="elhkfrcb7kwd6" class="animable"/><path d="M437.3 284.49v-1.16l-16.17 9.34c0 .41-.09.81-.13 1.23z" style="fill:#263238;transform-origin:429.15px 288.615px 0" id="elx3tfivq28xf" class="animable"/><path d="M429.06 332.69c.18-.48.34-1 .5-1.45l-13 7.52a6.41 6.41 0 0 0 .3 1z" style="fill:#263238;transform-origin:423.06px 335.5px 0" id="elvwnowug5tu" class="animable"/><path d="M430.73 325.56c0-.42.1-.83.14-1.24l-14 8.12c-.08.44-.15.87-.21 1.28z" style="fill:#263238;transform-origin:423.765px 329.02px 0" id="elnp7j3fbksp" class="animable"/><path d="M360.9 318.65c7.78.74 14.1-2.09 14.4-4.6 0 0 1.88-10.48-12-11.6s-14.26 9.05-14.26 9.05c-.04 2.4 4.07 6.42 11.86 7.15z" style="fill:#ff7b33;transform-origin:362.213px 310.567px 0" id="elbyyk33gk4gw" class="animable"/><g id="el36o7cl93r1"><path d="M360.9 318.65c7.78.74 14.1-2.09 14.4-4.6 0 0 1.88-10.48-12-11.6s-14.26 9.05-14.26 9.05c-.04 2.4 4.07 6.42 11.86 7.15z" style="fill:#fff;opacity:.7;transform-origin:362.213px 310.567px 0" class="animable" id="elbcp066v1cu9"/></g><path d="M375.3 314.05a9.7 9.7 0 0 0-2.54-7.93c.53 1 2.75 6.1-5.38 8.44-9.06 2.59-17.37-3.1-17.83-5.34a8.7 8.7 0 0 0-.5 2.28c0 2.4 4.06 6.42 11.85 7.15s14.1-2.09 14.4-4.6z" style="fill:#ff7b33;transform-origin:362.218px 312.444px 0" id="el72onrs925zf" class="animable"/><g id="elt3h0wv68oa"><path d="M375.3 314.05a9.7 9.7 0 0 0-2.54-7.93c.53 1 2.75 6.1-5.38 8.44-9.06 2.59-17.37-3.1-17.83-5.34a8.7 8.7 0 0 0-.5 2.28c0 2.4 4.06 6.42 11.85 7.15s14.1-2.09 14.4-4.6z" style="opacity:.05;transform-origin:362.218px 312.444px 0" class="animable" id="eltcr43sopn0i"/></g><path d="M345.66 218.05c-.2-2.17-1-6.68-4.79-8.46s-5.84 0-5.3 1.66 4.45 2.19 4.61 7.89c0 0 3.4 1.47 5.48-1.09z" style="fill:#455a64;transform-origin:340.572px 214.205px 0" id="el57xyvqzrh47" class="animable"/><g id="elb1xxsx4o3ar"><path d="M342.36 217.17a8.77 8.77 0 0 0-4-5.94c-1.21-.95-1.4-1.94 0-2.36-2.16-.19-3.23 1.12-2.82 2.38.55 1.69 4.45 2.19 4.61 7.89a6.05 6.05 0 0 0 2.45.41c-.02-.71-.11-1.55-.24-2.38z" style="opacity:.15;transform-origin:339.027px 214.203px 0" class="animable" id="eldui7s56il"/></g><path d="M337.52 222c2.45-5 10.23-5.64 16.28 0 9.08 8.47 10.57 16.86 6.74 21.32s-9.68 3.18-14.88-1.5c-4-3.63-11.66-12.65-8.14-19.82z" style="fill:#ff7b33;transform-origin:349.566px 232.041px 0" id="elzafxwohx8zr" class="animable"/><g id="el2ld5sofu0t"><path d="M360.54 243.3a8.37 8.37 0 0 0 1.95-5.06c-.47 2.5-1.73 4.27-3.43 4.87-2.08.74-5.78 1.89-11.92-4.46s-9.36-16.9-5.18-20.27a7 7 0 0 0-4.44 3.6c-3.54 7.19 4.14 16.21 8.14 19.82 5.2 4.68 11.05 5.97 14.88 1.5z" style="opacity:.1;transform-origin:349.551px 232.22px 0" class="animable" id="elod5nemy9p5f"/></g><path d="M324.41 241.33c-15.39-8.19-23.77-12.28-31.35-8.35l-3.69-7.12c11.67-6.05 23.05 0 38.81 8.4z" style="fill:#455a64;transform-origin:308.775px 232.37px 0" id="elo17h7zr6km" class="animable"/><path d="M303.56 232.51a.52.52 0 0 1-.41-.82 5.63 5.63 0 0 0 .87-4.22 5.3 5.3 0 0 0-1.79-3.42.51.51 0 1 1 .59-.83 6.21 6.21 0 0 1 2.21 4.09 6.67 6.67 0 0 1-1.06 5 .51.51 0 0 1-.41.2z" style="fill:#37474f;transform-origin:303.567px 227.809px 0" id="elp02epbinv2k" class="animable"/><path d="M312 235.55a.52.52 0 0 1-.37-.87 6.06 6.06 0 0 0 1.57-4.58 5 5 0 0 0-1.18-3.27.51.51 0 1 1 .65-.79 5.8 5.8 0 0 1 1.55 4 7.06 7.06 0 0 1-1.86 5.36.51.51 0 0 1-.36.15z" style="fill:#37474f;transform-origin:312.868px 230.737px 0" id="elwpga7zqnt9e" class="animable"/><g id="elysejbb60oji"><path d="M293.06 233c7.58-3.93 16 .16 31.35 8.35l1.56-2.92a89.54 89.54 0 0 0-11-6c-10.83-4.9-14.95-5.45-23.44-2.28z" style="opacity:.15;transform-origin:308.75px 234.76px 0" class="animable" id="els45lg8b1li"/></g><g id="eliqestovzl"><circle cx="283.82" cy="231.03" r="13" style="fill:#ff7b33;transform-origin:283.82px 231.03px 0;transform:rotate(-22.5deg)" class="animable" id="elitlfnv3b71i"/></g><g id="eldw514620zgo"><circle cx="283.82" cy="231.03" r="13" style="opacity:.25;transform-origin:283.82px 231.03px 0;transform:rotate(-22.5deg)" class="animable" id="el03ku9tms982c"/></g><circle cx="270.95" cy="302.08" r="32.34" style="fill:#ff7b33;transform-origin:270.95px 302.08px 0" id="el0wdth73vw2k8" class="animable"/><g id="ele80jdvk91x"><circle cx="270.95" cy="302.08" r="32.34" style="opacity:.35;transform-origin:270.95px 302.08px 0" class="animable" id="elgq16ztksz5t"/></g><g id="elz2gwm5ghlak"><path d="M273 327.42c-8-.92-11.82-5.75-11.82-5.75s28.06.08 41.5-26a32.38 32.38 0 0 0-17.36-22.56l-37.79 6.72a32.34 32.34 0 1 0 51.15 39c-6.46 7.59-17.56 9.54-25.68 8.59z" style="opacity:.15;transform-origin:270.692px 303.741px 0" class="animable" id="el6fxe9f6lyo3"/></g><path d="m302.42 284.8-.17-.34c-.05-.09-.09-.18-.13-.26a154.46 154.46 0 0 1-8.81-24 139.68 139.68 0 0 1-4.64-29.78h-74.54c0 27.92 5.36 55.35 17.57 76.58 2.08 4.09 6.48 7.47 13 9.45 16.09 4.87 39.07-.51 51.33-12 7.1-6.6 9.05-13.8 6.39-19.65z" style="fill:#ff7b33;transform-origin:258.844px 274.333px 0" id="eluo7kmztmz5h" class="animable"/><g id="elzouwayfyaki"><path d="M294.25 306.06c-5.22 3.84-17.06 8.61-25.92 8.53-10.14-.1-30.47-5.72-37.74-21.59S221 247.77 221 247.77s8.61 4.94 28.1 4.46l-2.55-21.78h-32.4c0 27.92 5.36 55.35 17.57 76.58 2.08 4.09 6.48 7.47 13 9.45 15.34 4.64 36.92-.03 49.53-10.42z" style="opacity:.1;transform-origin:254.2px 274.362px 0" class="animable" id="eln65h7q803r"/></g><path d="M298.16 274.83c-.1-.27-.21-.54-.31-.82s-.12-.32-.19-.48v-.11c-1.35-3.65-2.85-8.08-4.31-13.19a126.4 126.4 0 0 1-3.55-17.65v-.08c.83 6.05-2.76 12.28-10.8 16.91-9.6 5.54-23.14 7.44-35.42 5.66 1.44 13.77 6.08 28.26 13.72 39.18 12 .88 26.09-3.57 34.07-11 6.49-6.18 8.63-12.82 6.79-18.42z" style="fill:#37474f;transform-origin:271.187px 273.43px 0" id="el8f5cexp4dr8" class="animable"/><path d="M296.26 274.1c-.1-.26-.19-.54-.29-.82l-.18-.48v-.11c-1.28-3.68-2.7-8.14-4.05-13.27a112.71 112.71 0 0 1-2.38-11.59c-1.25 4.24-4.7 8.31-10.38 11.58-9.6 5.54-23.14 7.44-35.42 5.66 1.34 12.76 5.42 26.12 12.09 36.7 11.66.73 25.66-2.42 33.44-9.42 6.63-6.01 8.91-12.61 7.17-18.25z" style="fill:#455a64;transform-origin:270.191px 274.852px 0" id="elb4u7r3m1u4" class="animable"/><path d="m274.18 270.69-3.76-1.7s-13.73 3.21-22 2.44a53.23 53.23 0 0 0 1.58 12.19 39.64 39.64 0 0 0 4.5 10.82l4.33 2.1z" style="fill:#263238;transform-origin:261.3px 282.765px 0" id="elh6pwc6nmzdq" class="animable"/><path d="M251.49 274.86c0 5.23 4.33 18.09 7.35 21.68 0 0 15.17-.71 21.7-6.69-.21-1.67-6.36-19.16-6.36-19.16-4.01 2.96-15.86 4.18-22.69 4.17z" style="fill:#37474f;transform-origin:266.015px 283.615px 0" id="elym0t8h5jgx" class="animable"/><circle cx="275.79" cy="287.53" r="1.51" style="fill:#ff7b33;transform-origin:275.79px 287.53px 0" id="elplr3goqksun" class="animable"/><circle cx="271.16" cy="289.04" r=".74" style="fill:#ff7b33;transform-origin:271.16px 289.04px 0" id="el8kfk2msf64u" class="animable"/><path d="M275.07 279.12a.48.48 0 0 1-.2 0 .5.5 0 0 1-.46-.3.52.52 0 0 1 .27-.66 2.94 2.94 0 0 0 1.7-3.51l-3.53-12.42c.31-.12.63-.24.93-.37l3.56 12.52a3.93 3.93 0 0 1-2.27 4.74z" style="fill:#ff7b33;transform-origin:275.175px 270.495px 0" id="elydn4zxyafja" class="animable"/><path d="M269 281.05a.48.48 0 0 1-.2 0 .51.51 0 0 1-.46-.31.52.52 0 0 1 .27-.66 2.93 2.93 0 0 0 1.69-3.5l-3.55-12.52 1-.24 3.55 12.49a3.93 3.93 0 0 1-2.3 4.74z" style="fill:#ff7b33;transform-origin:269.104px 272.44px 0" id="ellwepn41zqf" class="animable"/><path d="M263 283a.43.43 0 0 1-.19 0 .5.5 0 0 1-.47-.3.52.52 0 0 1 .27-.66 2.93 2.93 0 0 0 1.69-3.51l-3.78-13.31 1-.13 3.73 13.17A3.92 3.92 0 0 1 263 283z" style="fill:#ff7b33;transform-origin:262.967px 274.05px 0" id="el5wvlw6g2adq" class="animable"/><g id="ellqbcboljvq"><g style="opacity:.3;transform-origin:269.01px 272.435px 0" class="animable" id="elnww145yaa99"><path d="M275.07 279.12a.48.48 0 0 1-.2 0 .5.5 0 0 1-.46-.3.52.52 0 0 1 .27-.66 2.94 2.94 0 0 0 1.7-3.51l-3.53-12.42c.31-.12.63-.24.93-.37l3.56 12.52a3.93 3.93 0 0 1-2.27 4.74z" id="eltk3c58rbms" style="transform-origin:275.175px 270.495px 0" class="animable"/><path d="M269 281.05a.48.48 0 0 1-.2 0 .51.51 0 0 1-.46-.31.52.52 0 0 1 .27-.66 2.93 2.93 0 0 0 1.69-3.5l-3.55-12.52 1-.24 3.55 12.49a3.93 3.93 0 0 1-2.3 4.74z" id="el91sdizvqyan" style="transform-origin:269.104px 272.44px 0" class="animable"/><path d="M263 283a.43.43 0 0 1-.19 0 .5.5 0 0 1-.47-.3.52.52 0 0 1 .27-.66 2.93 2.93 0 0 0 1.69-3.51l-3.78-13.31 1-.13 3.73 13.17A3.92 3.92 0 0 1 263 283z" id="el9voi52z7w3" style="transform-origin:262.967px 274.05px 0" class="animable"/></g></g><path d="M279 259.41c-.77.45-1.58.86-2.4 1.26.88 4.47 2.5 11.42 4.14 15.19 0 0 8-2.42 10.65-7.68a124.51 124.51 0 0 1-4-16.19 24.77 24.77 0 0 1-8.39 7.42z" style="fill:#37474f;transform-origin:283.995px 263.925px 0" id="elgs8cqozuham" class="animable"/><path d="M286.28 258.28a.87.87 0 1 1-.87-.87.87.87 0 0 1 .87.87z" style="fill:#ff7b33;transform-origin:285.41px 258.28px 0" id="elciysj5ojm5v" class="animable"/><path d="M287.51 262.23a.87.87 0 1 1-.86-.87.86.86 0 0 1 .86.87z" style="fill:#ff7b33;transform-origin:286.64px 262.23px 0" id="elh91lf6njhi6" class="animable"/><path d="M289.25 266.25a.87.87 0 1 1-.87-.87.87.87 0 0 1 .87.87z" style="fill:#ff7b33;transform-origin:288.38px 266.25px 0" id="elumw09t3tdch" class="animable"/><path d="M282.12 272.73a.51.51 0 0 1-.47-.31 93.61 93.61 0 0 1-2.78-10.81.51.51 0 0 1 .41-.58.52.52 0 0 1 .58.42 94.68 94.68 0 0 0 2.72 10.55.5.5 0 0 1-.27.65.46.46 0 0 1-.19.08z" style="fill:#ff7b33;transform-origin:280.74px 266.878px 0" id="elqtj3qi44bd" class="animable"/><path d="M284.87 271a.51.51 0 0 1-.47-.31 95.71 95.71 0 0 1-2.78-10.81.5.5 0 0 1 1-.17 93.55 93.55 0 0 0 2.72 10.59.51.51 0 0 1-.27.66.65.65 0 0 1-.2.04z" style="fill:#ff7b33;transform-origin:283.495px 265.144px 0" id="elo8mmcwgphr8" class="animable"/><path d="M349.73 264.32s-6.49 10.29-21.47 15.77a65.3 65.3 0 0 1-26.33 3.68 157.39 157.39 0 0 1-8.61-23.54 125.25 125.25 0 0 1-3.55-17.65s11.56 1.5 23.94-6.25c14.12-8.83 17.35-18.3 17.35-18.3 8.76 12.35 14.94 27.91 18.67 46.29z" style="fill:#ff7b33;transform-origin:319.75px 250.971px 0" id="elmtxb327z1h" class="animable"/><g id="elwaxftantxgl"><path d="M349.73 264.32s-6.49 10.29-21.47 15.77a65.3 65.3 0 0 1-26.33 3.68 157.39 157.39 0 0 1-8.61-23.54 125.25 125.25 0 0 1-3.55-17.65s11.56 1.5 23.94-6.25c14.12-8.83 17.35-18.3 17.35-18.3 8.76 12.35 14.94 27.91 18.67 46.29z" style="opacity:.25;transform-origin:319.75px 250.971px 0" class="animable" id="elbzlyjxm19og"/></g><g id="el1bslm1llm83"><path d="M349.73 264.32c-3.77-18.38-9.91-33.94-18.67-46.29a19.2 19.2 0 0 1-1.64 3.24c7.48 8.72 16.51 30.46 18 46a26.57 26.57 0 0 0 2.31-2.95z" style="opacity:.25;transform-origin:339.575px 242.65px 0" class="animable" id="eltn5qkuzazr"/></g><circle cx="331.84" cy="249.76" r="2.57" style="fill:#37474f;transform-origin:331.84px 249.76px 0" id="eli0wrrm64y2" class="animable"/><ellipse cx="251.4" cy="230.74" rx="37.28" ry="21.52" style="fill:#ff7b33;transform-origin:251.4px 230.74px 0" id="elpvoljh4g2ij" class="animable"/><g id="eljovji9hu76"><ellipse cx="251.4" cy="230.74" rx="37.28" ry="21.52" style="fill:#fff;opacity:.5;transform-origin:251.4px 230.74px 0" class="animable" id="eltp03emt1bjb"/></g><g id="elfsvkh54jeoe"><path d="M225 215.52c-5.68 3.29-9.14 7.36-10.38 11.61 1 3.68 3.94 7.21 8.84 10 12.31 7.11 32.26 7.11 44.57 0s12.3-18.5.2-25.61c-13.95-4.07-31.49-2.75-43.23 4z" style="opacity:.1;transform-origin:245.952px 225.84px 0" class="animable" id="elgb209mwv3st"/></g><path d="M300.33 273a7.57 7.57 0 0 0-4.89-1.19 9.36 9.36 0 0 0-5.39 2.37 5.44 5.44 0 0 0-.48.48 9.2 9.2 0 0 0-4.94 3.26 7 7 0 0 0-1.34 2.86 5.44 5.44 0 0 0-1.2 2.71 6.11 6.11 0 0 0 1.27 4.38 9.33 9.33 0 0 0 6.65 3.62c.51-.5 1-1 1.45-1.51a8.12 8.12 0 0 1-5.34-1.55 5.67 5.67 0 0 1-2.62-4.76v.1a6.89 6.89 0 0 0 4 3.82 5 5 0 0 0 5.2-.71 4.23 4.23 0 0 0 1-1.38 7.4 7.4 0 0 0 .94 0 4.71 4.71 0 0 0 4.32-2.25 5.73 5.73 0 0 0 .13-4.79 6 6 0 0 0-2.51-2.93 7.22 7.22 0 0 0-1.18-.59 9.39 9.39 0 0 0-3.64-.64 8.26 8.26 0 0 1 4-1.54 8.57 8.57 0 0 1 2.32.05 7.15 7.15 0 0 1 2.07.66c.42.21.45-.31.18-.47zm-14.81 5.9a7.77 7.77 0 0 1 2.9-2.5 7.22 7.22 0 0 0-.6 1.86 8.18 8.18 0 0 0-2.41.82 1.74 1.74 0 0 1 .11-.21zm3.41 7.59a5.68 5.68 0 0 1-3.66-2.45 4.22 4.22 0 0 1-.65-2.77 5.86 5.86 0 0 1 3.1-1.69 5.68 5.68 0 0 0 1.8 4.12 7.22 7.22 0 0 0 2.72 1.49 3.08 3.08 0 0 1-3.31 1.27zm2-3.47a4.6 4.6 0 0 1-1.74-3.51 3.5 3.5 0 0 1 2.52 1.36 4.56 4.56 0 0 1 1 3 6 6 0 0 1-1.82-.87zm3.33-7.09a5.66 5.66 0 0 1 2.58 1.52 4 4 0 0 1 .76 1.06 5 5 0 0 1 .42 3.64 2.94 2.94 0 0 1-2.62 2 5.29 5.29 0 0 1-1.26 0 5.39 5.39 0 0 0-.2-2.31 5.15 5.15 0 0 0-3.58-3.57 6.4 6.4 0 0 0-1.07-.14 6 6 0 0 1 1.08-2.43 8 8 0 0 1 3.85.2z" style="fill:#ff7b33;transform-origin:291.282px 281.631px 0" id="elje22w0fnodm" class="animable"/><g id="eldibi9up2v5v"><path d="M300.33 273a7.57 7.57 0 0 0-4.89-1.19 9.36 9.36 0 0 0-5.39 2.37 5.44 5.44 0 0 0-.48.48 9.2 9.2 0 0 0-4.94 3.26 7 7 0 0 0-1.34 2.86 5.44 5.44 0 0 0-1.2 2.71 6.11 6.11 0 0 0 1.27 4.38 9.33 9.33 0 0 0 6.65 3.62c.51-.5 1-1 1.45-1.51a8.12 8.12 0 0 1-5.34-1.55 5.67 5.67 0 0 1-2.62-4.76v.1a6.89 6.89 0 0 0 4 3.82 5 5 0 0 0 5.2-.71 4.23 4.23 0 0 0 1-1.38 7.4 7.4 0 0 0 .94 0 4.71 4.71 0 0 0 4.32-2.25 5.73 5.73 0 0 0 .13-4.79 6 6 0 0 0-2.51-2.93 7.22 7.22 0 0 0-1.18-.59 9.39 9.39 0 0 0-3.64-.64 8.26 8.26 0 0 1 4-1.54 8.57 8.57 0 0 1 2.32.05 7.15 7.15 0 0 1 2.07.66c.42.21.45-.31.18-.47zm-14.81 5.9a7.77 7.77 0 0 1 2.9-2.5 7.22 7.22 0 0 0-.6 1.86 8.18 8.18 0 0 0-2.41.82 1.74 1.74 0 0 1 .11-.21zm3.41 7.59a5.68 5.68 0 0 1-3.66-2.45 4.22 4.22 0 0 1-.65-2.77 5.86 5.86 0 0 1 3.1-1.69 5.68 5.68 0 0 0 1.8 4.12 7.22 7.22 0 0 0 2.72 1.49 3.08 3.08 0 0 1-3.31 1.27zm2-3.47a4.6 4.6 0 0 1-1.74-3.51 3.5 3.5 0 0 1 2.52 1.36 4.56 4.56 0 0 1 1 3 6 6 0 0 1-1.82-.87zm3.33-7.09a5.66 5.66 0 0 1 2.58 1.52 4 4 0 0 1 .76 1.06 5 5 0 0 1 .42 3.64 2.94 2.94 0 0 1-2.62 2 5.29 5.29 0 0 1-1.26 0 5.39 5.39 0 0 0-.2-2.31 5.15 5.15 0 0 0-3.58-3.57 6.4 6.4 0 0 0-1.07-.14 6 6 0 0 1 1.08-2.43 8 8 0 0 1 3.85.2z" style="fill:#fff;opacity:.5;transform-origin:291.282px 281.631px 0" class="animable" id="elguaj9ngprlt"/></g><g id="elhrvqxxso5np"><path d="M282.12 283.33a4.3 4.3 0 0 0 1.64 2.05 4.31 4.31 0 0 1-.26-1.74v.1a7.68 7.68 0 0 1-.24-3 5.45 5.45 0 0 0-1.14 2.59z" style="opacity:.15;transform-origin:282.94px 283.06px 0" class="animable" id="el9ztjr81kq1"/></g><g id="el32tmwp60g6e"><path d="M285 280.88a6.22 6.22 0 0 1 .39-1.83 4.67 4.67 0 0 0-.79 2.19 4.64 4.64 0 0 1 .4-.36z" style="opacity:.15;transform-origin:284.995px 280.145px 0" class="animable" id="el5heonkr852w"/></g><g id="elljj3kb24k7h"><path d="M287.19 277.15a7.28 7.28 0 0 1 1.23-.78 6.71 6.71 0 0 1 1.15-1.74 9.22 9.22 0 0 0-1 .34 4.93 4.93 0 0 0-1.38 2.18z" style="opacity:.15;transform-origin:288.38px 275.89px 0" class="animable" id="elxesyq1uadxn"/></g><g id="elyqn713wjw"><path d="M287.82 278.23a5.59 5.59 0 0 0-.56.12 9 9 0 0 0-.23 1.39c.23-.07.46-.14.69-.19a4.38 4.38 0 0 1 .1-1.32z" style="opacity:.15;transform-origin:287.425px 278.985px 0" class="animable" id="el9vussjmfwl"/></g><g id="ellwaasfsmf1"><path d="M293.72 285.47a14.8 14.8 0 0 1-1.48-.31 2.89 2.89 0 0 1-.58.67 3.66 3.66 0 0 0 1.44.57 4.86 4.86 0 0 0 .62-.93z" style="opacity:.15;transform-origin:292.69px 285.78px 0" class="animable" id="el3w5o9oxk1df"/></g><g id="elx7025x4f8us"><path d="M291.78 274.32a11.5 11.5 0 0 0-1.45 1.4c.18 0 .36-.05.53-.08a9.72 9.72 0 0 1 .92-1.32z" style="opacity:.15;transform-origin:291.055px 275.02px 0" class="animable" id="elyvu5vc7kso"/></g><g id="elysc7rfoach"><path d="m289.15 279.48.3.06a4.44 4.44 0 0 1 0-1.37h-.2a6.46 6.46 0 0 0-.1 1.31z" style="opacity:.15;transform-origin:289.299px 278.855px 0" class="animable" id="elxt704d8ipap"/></g><g id="el20p6nmw99o7"><path d="M294.15 283.61a4.56 4.56 0 0 1-1.52 0 2.44 2.44 0 0 1 0 .27 6.09 6.09 0 0 0 1.46.29 5.07 5.07 0 0 0 .06-.56z" style="opacity:.15;transform-origin:293.39px 283.89px 0" class="animable" id="el2tvzmnlr0xd"/></g><g id="freepik--Arm--inject-21" style="transform-origin:221.821px 308.149px 0" class="animable"><path d="M231.67 268.64c0 2.8-.94 4.8-2.47 5.81a10.59 10.59 0 0 1-1.2.55 13 13 0 0 1-17.73-12.12 12.94 12.94 0 0 1 5.12-10.33.15.15 0 0 1 .1-.09c.16-.11.3-.22.46-.32 1.65-1 3.94-.82 6.48.64 5.13 2.89 9.24 10 9.24 15.86z" style="fill:#ff7b33;transform-origin:220.97px 263.701px 0" id="elxfex7ds8jj9" class="animable"/><g id="elt2i19n9r0d"><path d="M231.67 268.64c0 2.8-.94 4.8-2.47 5.81a10.59 10.59 0 0 1-1.2.55 13 13 0 0 1-17.73-12.12 12.94 12.94 0 0 1 5.12-10.33.15.15 0 0 1 .1-.09c.16-.11.3-.22.46-.32 1.65-1 3.94-.82 6.48.64 5.13 2.89 9.24 10 9.24 15.86z" style="opacity:.25;transform-origin:220.97px 263.701px 0" class="animable" id="elpnietx5bghl"/></g><g id="elkiy3lw49mdo"><path d="M231.67 268.64c0-4.52-2.45-9.78-5.9-13.3 2.57 3.22 5 11.43 1.86 15.62s-14.72 1.81-17-5.07A13 13 0 0 0 228 275a10.59 10.59 0 0 0 1.19-.54c1.54-1.02 2.48-3.02 2.48-5.82z" style="opacity:.1;transform-origin:221.15px 265.614px 0" class="animable" id="el3lzq8mlfhqe"/></g><path d="M216.48 348.39a13.35 13.35 0 0 0-.13 5.79c.16.8 1 1.46 1.37 1.07l7.9-8.1 6.34 1.57 1.81 6.29-8.27 8.49c-.31.32-.27.65.05.74l.59.16a13.21 13.21 0 0 0 11.38-23.17l10.39-43.31a13.23 13.23 0 0 0 10.35-15.54c-.17-.81-1-1.47-1.38-1.08l-7.9 8.1-6.34-1.57-1.81-6.29 8.27-8.5c.3-.3.26-.65 0-.74l-.59-.16a13.21 13.21 0 0 0-11.38 23.18l-10.39 43.31a13.2 13.2 0 0 0-10.26 9.76z" style="fill:#ff7b33;transform-origin:237.305px 318.268px 0" id="el1q1sqb3kxam" class="animable"/><g id="ele22gfs7d67s"><path d="M216.48 348.39a13.35 13.35 0 0 0-.13 5.79c.16.8 1 1.46 1.37 1.07l7.9-8.1 6.34 1.57 1.81 6.29-8.27 8.49c-.31.32-.27.65.05.74l.59.16a13.21 13.21 0 0 0 11.38-23.17l10.39-43.31a13.23 13.23 0 0 0 10.35-15.54c-.17-.81-1-1.47-1.38-1.08l-7.9 8.1-6.34-1.57-1.81-6.29 8.27-8.5c.3-.3.26-.65 0-.74l-.59-.16a13.21 13.21 0 0 0-11.38 23.18l-10.39 43.31a13.2 13.2 0 0 0-10.26 9.76z" style="fill:#fff;opacity:.8;transform-origin:237.305px 318.268px 0" class="animable" id="elw32wodacs8h"/></g><path d="M243.12 315.63a6.45 6.45 0 0 1-6.45.71 7 7 0 0 1-3.84-3.31l-5.44 22.68a12.83 12.83 0 0 0 11.22 1l4.94-20.61c-.14-.16-.28-.32-.43-.47z" style="fill:#ff7b33;transform-origin:235.47px 325.294px 0" id="eldvvdzopx3td" class="animable"/><g id="elgx4hb3qflpp"><path d="M243.12 315.63a6.45 6.45 0 0 1-6.45.71 7 7 0 0 1-3.84-3.31l-5.44 22.68a12.83 12.83 0 0 0 11.22 1l4.94-20.61c-.14-.16-.28-.32-.43-.47z" style="opacity:.05;transform-origin:235.47px 325.294px 0" class="animable" id="elxnaue5dj3i"/></g><path d="M223.26 319.09c-8.44.6-20.64-3.93-26.18-9.25-2.93-2.83-3.57-6.79-2-12.49 3.05-11 16.24-26.21 22.5-29.16a1.93 1.93 0 0 0 .91-1.86 6.25 6.25 0 0 0-2.84-4.91 2 2 0 0 0-1.95-.22c-8.72 4.11-23.31 21.47-26.87 34.29-2.39 8.6-1 15.47 4.15 20.41 6.65 6.39 20.18 11.29 30.64 11.29.75 0 1.5 0 2.22-.08z" style="fill:#455a64;transform-origin:204.768px 294.116px 0" id="eliguvwa2tkrm" class="animable"/><path d="M210.62 274.25a.6.6 0 0 1-.6-.61 4.73 4.73 0 0 0-1.92-3.46 4.68 4.68 0 0 0-3.62-1.25.6.6 0 0 1-.71-.47.61.61 0 0 1 .47-.71 6.59 6.59 0 0 1 7 5.9.6.6 0 0 1-.62.6z" style="fill:#37474f;transform-origin:207.5px 270.993px 0" id="el7vzg4us1u8u" class="animable"/><path d="M205.64 279.75a.6.6 0 0 1-.57-.4c-.82-2.27-4.35-4.32-6.52-3.79a.6.6 0 1 1-.29-1.17c2.76-.68 6.92 1.71 7.94 4.55a.59.59 0 0 1-.36.77.51.51 0 0 1-.2.04z" style="fill:#37474f;transform-origin:202.021px 277.012px 0" id="elxmn8h6xp429" class="animable"/><path d="M200.19 287.25a.6.6 0 0 1-.56-.37 6.44 6.44 0 0 0-6.64-3.57.6.6 0 0 1-.72-.46.61.61 0 0 1 .45-.72 7.57 7.57 0 0 1 8 4.3.6.6 0 0 1-.34.78.57.57 0 0 1-.19.04z" style="fill:#37474f;transform-origin:196.509px 284.647px 0" id="ellds2wtt7xfa" class="animable"/><path d="M196.24 294.7a.6.6 0 0 1-.57-.4c-.26-.69-1.65-1.42-3.24-1.68s-3.49-.12-4.42 1a.6.6 0 0 1-.85.09.61.61 0 0 1-.08-.85c1.06-1.31 3.13-1.85 5.55-1.45 1.6.26 3.66 1.07 4.17 2.46a.59.59 0 0 1-.35.77.52.52 0 0 1-.21.06z" style="fill:#37474f;transform-origin:191.892px 292.99px 0" id="elddqkesxnq99" class="animable"/><path d="M185.73 304.67a.69.69 0 0 1-.2 0 .61.61 0 0 1-.37-.77c.77-2.18 3.5-3.26 5.87-3.35 1.91-.08 3.33.48 3.78 1.5a.6.6 0 0 1-.3.8.62.62 0 0 1-.8-.31c-.23-.52-1.3-.84-2.63-.79-2 .08-4.23 1-4.78 2.55a.6.6 0 0 1-.57.37z" style="fill:#37474f;transform-origin:189.996px 302.61px 0" id="el9awva6bhcfl" class="animable"/><path d="M188.91 314.1a.6.6 0 0 1-.55-.65c.24-2.65 2.89-4.31 5.08-4.93.65-.18 2.83-.69 3.62.37a.6.6 0 0 1-1 .72c-.11-.15-.95-.32-2.38.09-1.8.52-4 1.84-4.15 3.86a.6.6 0 0 1-.62.54z" style="fill:#37474f;transform-origin:192.767px 311.17px 0" id="el3ggu6kcemeq" class="animable"/><path d="M197.37 321.09a.61.61 0 0 1-.54-.33 4.8 4.8 0 0 1 .91-5.42c1.48-1.71 3.66-2.58 5.2-2.07a.61.61 0 0 1-.39 1.15c-1.05-.36-2.77.39-3.9 1.71a3.7 3.7 0 0 0-.75 4.08.6.6 0 0 1-.26.81.54.54 0 0 1-.27.07z" style="fill:#37474f;transform-origin:199.833px 317.108px 0" id="elm6vgac8uzok" class="animable"/><path d="M205.51 324.75a.61.61 0 0 1-.55-.37 6.63 6.63 0 0 1 .77-5.88 4.58 4.58 0 0 1 3.28-2.43.6.6 0 0 1 .63.57.59.59 0 0 1-.57.63 3.63 3.63 0 0 0-2.32 1.87 5.41 5.41 0 0 0-.68 4.77.6.6 0 0 1-.32.79.69.69 0 0 1-.24.05z" style="fill:#37474f;transform-origin:207.118px 320.41px 0" id="elqnqbk5xnbe" class="animable"/><path d="M213.75 327a.61.61 0 0 1-.54-.34 7.32 7.32 0 0 1 .08-5.75 4.86 4.86 0 0 1 2.6-2.86.6.6 0 1 1 .4 1.13 3.8 3.8 0 0 0-1.89 2.19 6.18 6.18 0 0 0-.1 4.77.6.6 0 0 1-.29.8.58.58 0 0 1-.26.06z" style="fill:#37474f;transform-origin:214.689px 322.503px 0" id="elvj1ys6bevj" class="animable"/><g id="eloeb6bkb3yv"><path d="M188.16 297.57c2.84-12.78 13.43-23.57 18.94-28.74 3.54-3.3 7.53-5.41 10.24-5.82a5.42 5.42 0 0 0-1.68-1.6 2 2 0 0 0-1.95-.22c-8.72 4.11-23.31 21.47-26.87 34.29-2.39 8.6-1 15.47 4.15 20.41.01-.01-5.66-5.53-2.83-18.32z" style="opacity:.15;transform-origin:201.523px 288.461px 0" class="animable" id="elcxmbqosezi7"/></g><g id="elihik3ubrusa"><path d="M223.26 319.09c-8.44.6-20.64-3.93-26.18-9.25a9 9 0 0 1-2.66-5h-.16c.65 4.08 1.17 8.9 12.84 13.57a38 38 0 0 0 16.31 2.7z" style="opacity:.15;transform-origin:208.835px 313.004px 0" class="animable" id="eled1zv5z9e9s"/></g><path d="M228.6 312.15c-.35-3.61.13-7.73 1.69-10.25s4.09-4.25 5.28-2.18c.8 1.38-.89 3.49-1.68 6.08a11.69 11.69 0 0 0-.17 4.78z" style="fill:#455a64;transform-origin:232.136px 305.475px 0" id="elhwqnhmyiens" class="animable"/><g id="eli9gmcypam4r"><path d="M233.89 305.8c.79-2.59 2.48-4.7 1.68-6.08a1.7 1.7 0 0 0-1-.84c.68.93-.92 2.67-2.05 4.9a14.09 14.09 0 0 0-1 7.47l2.2-.67a11.69 11.69 0 0 1 .17-4.78z" style="opacity:.15;transform-origin:233.583px 305.065px 0" class="animable" id="elgh5e9gy9ahj"/></g><path d="M247.6 325.38a12.85 12.85 0 1 1-14-15.6c.13 1.67 2 3.68 4.11 4.44a6.45 6.45 0 0 0 6.45-.72 12.84 12.84 0 0 1 3.44 11.88z" style="fill:#ff7b33;transform-origin:235.064px 322.588px 0" id="elqzoq6nvrnz" class="animable"/><path d="M247.6 325.38a12.85 12.85 0 1 1-14-15.6c.13 1.67 2 3.68 4.11 4.44a6.45 6.45 0 0 0 6.45-.72 12.84 12.84 0 0 1 3.44 11.88z" style="fill:#ff7b33;transform-origin:235.064px 322.588px 0" id="el42lkrqtgcfe" class="animable"/><g id="el2quk2n4m04q"><path d="M247.6 325.38a11.38 11.38 0 0 0 .22-1.3c-1.77 3.57-6.06 8.54-14.57 7.08-8.74-1.5-10.55-12-9.41-14.83a12.44 12.44 0 0 0-1.31 3.43 12.85 12.85 0 1 0 25.07 5.62z" style="opacity:.1;transform-origin:234.983px 326.03px 0" class="animable" id="eln939gjs5k4"/></g><path d="M247.67 320c4.38-1.77 5.82-5.78 5.14-9.84s-6.49-5.65-6.49-5.65l-1.12 4.68s2.86 1.07 2.72 3.07a4.22 4.22 0 0 1-2.23 3 3.51 3.51 0 0 0 1.98 4.74z" style="fill:#455a64;transform-origin:249.085px 312.255px 0" id="elg2kb083mws8" class="animable"/><g id="elcw86usew6n"><path d="m246.32 304.55-1.12 4.68s2.86 1.07 2.72 3.07a4.22 4.22 0 0 1-2.23 3 3.5 3.5 0 0 0 .88 4c-.46-1.57.54-2.33 2.1-4s.94-4.49-.06-6.26a5.09 5.09 0 0 1-.3-3.77 12.45 12.45 0 0 0-1.99-.72z" style="opacity:.15;transform-origin:247.408px 311.925px 0" class="animable" id="elv9pf7042o9f"/></g><path d="M247.09 327.09c3.41 1 7.53-.39 8.08-3.17s-.37-5.08-3.59-7a8.45 8.45 0 0 1-3.91 3.08l.21 1.5a4.83 4.83 0 0 0-.79 5.59z" style="fill:#455a64;transform-origin:250.927px 322.167px 0" id="elfggsohnwxts" class="animable"/><g id="elgwnmii9i5np"><path d="M251.58 317a8.45 8.45 0 0 1-3.91 3.08l.21 1.5h4.17s-1.08-.35-.77-1.06 2.06-.44 2.91.66a3.76 3.76 0 0 1 .22 4.31 3.35 3.35 0 0 0 .76-1.53c.56-2.82-.37-5.12-3.59-6.96z" style="opacity:.15;transform-origin:251.496px 321.245px 0" class="animable" id="elnxxtvvrhv8"/></g><path d="M242.46 333.08a14 14 0 0 0 4.57 2.7c1.31.49 3.6.52 4.83-.79s.38-2.76-.54-3.41a30.56 30.56 0 0 0-5-2.8s-3.56 0-3.86 4.3z" style="fill:#455a64;transform-origin:247.467px 332.436px 0" id="elglawghbe4g" class="animable"/><g id="elmcyonk0jisf"><path d="M251.32 331.58a30.56 30.56 0 0 0-5-2.8 4 4 0 0 0-2.94 1.54c.75-.75 3.26.64 5.31 1.88s3.66 1.94 2.82 3.08a3.17 3.17 0 0 0 .35-.29c1.31-1.42.38-2.76-.54-3.41z" style="opacity:.15;transform-origin:247.944px 332.03px 0" class="animable" id="ele6i3hgon4au"/></g></g><path d="M345.49 230a2.78 2.78 0 0 0 1.48-3.45c-.83-2.41-3.74-3.12-3.74-3.12s-5.39-1.49-9.5 1-4.17 7.7-4.05 9.37a2.35 2.35 0 0 0 4.55.5c.95-2.05.94-4.89 4.37-5.89 2.83-.84 5.21 2.33 6.89 1.59z" style="fill:#455a64;transform-origin:338.388px 229.429px 0" id="el363kqkdbkqu" class="animable"/><g id="elp0p1q0fz2nb"><path d="M343.84 227.82c-2.86-1.17-5.92-2.7-8.35 0s-1.93 5.34-2.94 6.45-2.22.92-2.76 0a2.35 2.35 0 0 0 4.44 0c.95-2.05.94-4.89 4.37-5.89 2.83-.82 5.21 2.35 6.89 1.61a2.78 2.78 0 0 0 1.48-3.45c.03 1.22-.89 2.19-3.13 1.28z" style="opacity:.15;transform-origin:338.458px 231.083px 0" class="animable" id="elfewp2g1sf9j"/></g><path d="M351.06 241.68a2.11 2.11 0 0 1 2.59-.22 2.77 2.77 0 0 1 1.66 2.31s.15 3.54-3.69 7.17a11.21 11.21 0 0 1-9 2.79c-2.52-.68-2.95-3.52 0-4.16 2.21-.48 4.16-.43 6.53-3.09 1.45-1.64 1.45-3.81 1.91-4.8z" style="fill:#455a64;transform-origin:347.938px 247.473px 0" id="elbuj7imqcw77" class="animable"/><g id="eldkuq3441loi"><path d="M350.11 249.76c-3.89 3-6.28 2.65-7.73 2.29s-1.43-1.76-.82-2.07c-1.7 1-1.09 3.17 1.07 3.75a11.21 11.21 0 0 0 9-2.79c3.84-3.63 3.69-7.17 3.69-7.17a2.77 2.77 0 0 0-1.66-2.31c.72.95.62 5.15-3.55 8.3z" style="opacity:.15;transform-origin:347.95px 247.645px 0" class="animable" id="elv7hbjo0cu47"/></g><path d="M347.28 231.6a4 4 0 0 1 3.64 2c1.92 2.91-.34 4.13-.34 4.13-1.49.18-3.37-.76-6.42.45-3.79 1.5-4.21 4.38-5.1 6.65-1 2.52-4.85 1.15-4.22-2.78s2.25-6.47 4.82-8.13a14.52 14.52 0 0 1 7.62-2.32z" style="fill:#455a64;transform-origin:343.232px 238.85px 0" id="elc9drdjf0kmi" class="animable"/><g id="elkm9dj54554"><path d="M348.53 235.44c-2.67-.14-6.64.27-8.44 3.14-1.21 1.94-1.51 4.65-2.57 5.45a1.68 1.68 0 0 1-2.74-1.05c.06 3.21 3.38 4.17 4.28 1.86s1.31-5.15 5.1-6.65c3-1.21 4.93-.27 6.42-.45 0 0 2.06-1.12.56-3.77.42 1.03.05 1.62-2.61 1.47z" style="opacity:.15;transform-origin:343.234px 240.042px 0" class="animable" id="elz23k4ccjk6"/></g><path d="M280.45 322.5a6 6 0 1 0-9.08 7.86l38.34 44.37 9.1-7.86z" style="fill:#455a64;transform-origin:294.358px 347.578px 0" id="el7k3s8ewk1sx" class="animable"/><path d="M277.26 337.77a.63.63 0 0 1-.46-.2 6.61 6.61 0 1 1 10-8.64.6.6 0 1 1-.91.78 5.41 5.41 0 1 0-8.18 7.07.6.6 0 0 1-.06.85.57.57 0 0 1-.39.14z" style="fill:#37474f;transform-origin:281.021px 332.14px 0" id="ele0vi7kpd444" class="animable"/><path d="M283.77 345.31a.6.6 0 0 1-.46-.21 6.61 6.61 0 1 1 10-8.64.6.6 0 1 1-.91.79 5.4 5.4 0 1 0-8.18 7.06.6.6 0 0 1-.06.85.58.58 0 0 1-.39.15z" style="fill:#37474f;transform-origin:287.522px 339.675px 0" id="elmdg8p799e2b" class="animable"/><path d="M290.28 352.84a.63.63 0 0 1-.46-.2 6.61 6.61 0 1 1 10-8.64.6.6 0 0 1-.91.78 5.41 5.41 0 1 0-8.18 7.07.6.6 0 0 1-.06.85.57.57 0 0 1-.39.14z" style="fill:#37474f;transform-origin:294.022px 347.21px 0" id="eldr7ejkns6jj" class="animable"/><path d="M296.79 360.38a.6.6 0 0 1-.46-.21 6.61 6.61 0 1 1 10-8.64.6.6 0 1 1-.91.79 5.4 5.4 0 1 0-8.18 7.06.6.6 0 0 1-.06.85.58.58 0 0 1-.39.15z" style="fill:#37474f;transform-origin:300.542px 354.745px 0" id="elzoj1gsfq5i" class="animable"/><path d="M303.3 367.91a.6.6 0 0 1-.46-.21 6.61 6.61 0 1 1 10-8.64.6.6 0 1 1-.91.79 5.41 5.41 0 1 0-8.18 7.07.6.6 0 0 1-.06.85.62.62 0 0 1-.39.14z" style="fill:#37474f;transform-origin:307.052px 362.275px 0" id="el5vapom3i4kb" class="animable"/><g id="el0xfq0jjlkih"><path d="M275.9 320.42a6 6 0 0 0-4.54 9.94l38.34 44.37 3.78-3.27c-11.71-13.11-30.71-34.39-35.83-40.22-7.56-8.6-4.48-10.17-1.75-10.82z" style="opacity:.15;transform-origin:291.683px 347.575px 0" class="animable" id="elj038x7exwdf"/></g><path d="M380.27 372.91s-11.22-9.79-20.21-3.39a67.54 67.54 0 0 0-14.4 14l-24.22-21.41c-1.49-1.29-4.09-1.32-6.66.16-4.5 2.6-8.14 8.91-8.14 14.1a7 7 0 0 0 1.12 4.1s26.63 37.23 31.16 43 10.28 8.8 18 5.28 10-13.6 10.93-20.41 9.65-16.36 12-22.47c2.45-6.68 1.86-10.71.42-12.96z" style="fill:#ff7b33;transform-origin:344.077px 395.702px 0" id="elzfvtwnf171d" class="animable"/><g id="el5lt7kbuccbf"><path d="M371.52 370.22c-4.29.36-14.58 5.68-17.59 17a93.07 93.07 0 0 1-4.2 12.72 29.43 29.43 0 0 1-5.66 8.42c-3.55 3.77-7.8 1.2-11.48-1.85S318.51 389.79 315 383.9c-2.57-4.26-3.38-7.49-2.68-10.59.24.32.49.63.74.91 3.46 3.84 10.07 7 15.11 3.15 2.46-1.87 2.66-4.82 1.85-7.74l-8.54-7.55c-1.49-1.29-4.09-1.32-6.66.16-.27.16-.53.33-.79.5l-.27.2-.49.37-.32.27-.42.37-.34.32-.36.36-.35.37-.32.37c-.12.13-.24.27-.35.41l-.28.36c-.12.15-.24.31-.35.47s-.15.21-.22.31a17.34 17.34 0 0 0-3.28 9.42 7 7 0 0 0 1.12 4.1s26.63 37.23 31.16 43 10.28 8.8 18 5.28 10-13.6 10.93-20.41c.68-5 5.62-11.55 9.09-17.08z" style="opacity:.15;transform-origin:341.827px 395.672px 0" class="animable" id="eldb7w8ddsaht"/></g><path d="M379.77 385.84c2.53-6.65 1.94-10.68.5-12.93a27.13 27.13 0 0 0-4.74-3.15c-6.19-.79-13.79 6.47-16.6 11.12s-4.32 10.27-6.35 17.77c-1.8 6.65-6.31 10.36-8.87 16.61-1.86 4.54-2.28 8-1 12 3.86 3 8.49 4 14.19 1.43 7.67-3.51 10-13.6 10.93-20.41s9.62-16.28 11.94-22.44z" style="fill:#455a64;transform-origin:361.741px 399.931px 0" id="el92kol39qbmc" class="animable"/><path d="M360.72 383.49c-4 7.13-4.8 17-8.18 22.77s-8.5 12.16-7.91 17.7c.38 3.62 1.65 5.52 4 6.09a12.23 12.23 0 0 0 3.87 0l.52-.1a16.73 16.73 0 0 0 3.83-1.25c7.67-3.51 10-13.6 10.93-20.41s9.65-16.36 12-22.47c2.53-6.65 1.94-10.68.5-12.93-4.9-3.14-14.28 1.2-19.56 10.6z" style="fill:#37474f;transform-origin:363.051px 401.041px 0" id="el8xa9vp6i15x" class="animable"/><g id="ele1594lg5xag"><path d="M344.07 382.09c-5.35 5.13-6.79 13-6.79 13a118.86 118.86 0 0 1 8.38-11.59z" style="opacity:.15;transform-origin:341.47px 388.59px 0" class="animable" id="elifc29otj2wq"/></g><path d="M354.54 401.67c-.15.43-.3.84-.45 1.25l16.73-2.13c.24-.42.49-.85.75-1.28z" style="fill:#263238;transform-origin:362.83px 401.215px 0" id="ele2gwtjjra5k" class="animable"/><path d="M351.67 407.7q-.39.65-.81 1.29l17.27-2.19c.11-.41.24-.82.39-1.24z" style="fill:#263238;transform-origin:359.69px 407.275px 0" id="elp63c5llrgco" class="animable"/><path d="m345.21 426.7 16.79-2.14c.34-.42.65-.86 1-1.31l-18.09 2.3a11.23 11.23 0 0 0 .3 1.15z" style="fill:#263238;transform-origin:353.955px 424.975px 0" id="elsyq4cdf1sdp" class="animable"/><path d="M345.09 419.86q-.18.61-.3 1.23l20.6-2.62c.16-.41.3-.83.44-1.25z" style="fill:#263238;transform-origin:355.31px 419.155px 0" id="el09nj8zmwgdyf" class="animable"/><path d="M347.86 413.85c-.25.42-.49.85-.72 1.28l19.93-2.54c.09-.41.17-.81.24-1.22z" style="fill:#263238;transform-origin:357.225px 413.25px 0" id="ele7paq7il0cc" class="animable"/><path d="M365.08 377.69c-.42.42-.83.87-1.24 1.34l17.62-2.24a10.36 10.36 0 0 0-.15-1.17z" style="fill:#263238;transform-origin:372.65px 377.325px 0" id="elyd6c9packqh" class="animable"/><path d="M360.49 383.93c-.23.42-.44.84-.65 1.27l21-2.67c.11-.42.21-.83.29-1.22z" style="fill:#263238;transform-origin:370.485px 383.255px 0" id="els3hugosw3jr" class="animable"/><path d="M358 389.91c-.13.41-.27.82-.39 1.24l20.9-2.66c.24-.44.46-.86.66-1.27z" style="fill:#263238;transform-origin:368.39px 389.185px 0" id="elmplmzri5i7" class="animable"/><path d="M356.28 395.79c-.12.41-.23.83-.34 1.23l18.74-2.38.85-1.3z" style="fill:#263238;transform-origin:365.735px 395.18px 0" id="elfxl48kx306" class="animable"/><path d="M313.08 357c-5.55 3.83-2.81 11.88.65 15.73s10.07 7 15.11 3.14c4.63-3.52 1.28-10.89-1.84-14.65-3.26-3.98-9.54-7.28-13.92-4.22z" style="fill:#ff7b33;transform-origin:320.517px 366.715px 0" id="el529ek7odrhu" class="animable"/><g id="elrama6faljn"><path d="M313.08 357c-5.55 3.83-2.81 11.88.65 15.73s10.07 7 15.11 3.14c4.63-3.52 1.28-10.89-1.84-14.65-3.26-3.98-9.54-7.28-13.92-4.22z" style="fill:#fff;opacity:.7;transform-origin:320.517px 366.715px 0" class="animable" id="elctrivka91bg"/></g><path d="M331.11 371c-.39 2.73-4.57 6.27-11.62.82s-7.21-13.61-4.89-15.61a7 7 0 0 0-1.52.77c-5.55 3.83-2.81 11.88.65 15.73s10.06 7 15.11 3.14a5.8 5.8 0 0 0 2.27-4.85z" style="fill:#ff7b33;transform-origin:320.514px 366.91px 0" id="elcp0oiwgqra" class="animable"/><g id="el0dzfa1jfvas"><path d="M331.11 371c-.39 2.73-4.57 6.27-11.62.82s-7.21-13.61-4.89-15.61a7 7 0 0 0-1.52.77c-5.55 3.83-2.81 11.88.65 15.73s10.06 7 15.11 3.14a5.8 5.8 0 0 0 2.27-4.85z" style="opacity:.05;transform-origin:320.514px 366.91px 0" class="animable" id="elsfclyx92zi"/></g><path d="M258.89 228.39v-24.52h-15v24.52a3.71 3.71 0 0 0 2.19 3.06 11.71 11.71 0 0 0 10.6 0 3.71 3.71 0 0 0 2.21-3.06z" style="fill:#455a64;transform-origin:251.39px 218.294px 0" id="el7q08u7mplmx" class="animable"/><path d="M251.4 228.52a11.38 11.38 0 0 1-5.55-1.32 4.22 4.22 0 0 1-2.45-3.51.51.51 0 0 1 .51-.51.51.51 0 0 1 .51.51 3.25 3.25 0 0 0 1.94 2.62 11.12 11.12 0 0 0 10.08 0 3.25 3.25 0 0 0 1.94-2.62.52.52 0 0 1 1 0 4.22 4.22 0 0 1-2.38 3.51 11.45 11.45 0 0 1-5.6 1.32z" style="fill:#37474f;transform-origin:251.39px 225.851px 0" id="elebasiwl17gl" class="animable"/><path d="M251.4 223.82a11.38 11.38 0 0 1-5.55-1.32 4.22 4.22 0 0 1-2.45-3.5.51.51 0 0 1 .51-.52.51.51 0 0 1 .51.52 3.25 3.25 0 0 0 1.94 2.61 11.12 11.12 0 0 0 10.08 0 3.25 3.25 0 0 0 1.94-2.62.52.52 0 0 1 1 0 4.22 4.22 0 0 1-2.38 3.51 11.45 11.45 0 0 1-5.6 1.32z" style="fill:#37474f;transform-origin:251.39px 221.151px 0" id="ell2519gw22wh" class="animable"/><path d="M251.4 219.12a11.38 11.38 0 0 1-5.55-1.32 4.22 4.22 0 0 1-2.45-3.5.51.51 0 0 1 .51-.52.51.51 0 0 1 .51.52 3.25 3.25 0 0 0 1.94 2.61 11.12 11.12 0 0 0 10.08 0 3.25 3.25 0 0 0 1.94-2.62.52.52 0 0 1 1 0 4.22 4.22 0 0 1-2.38 3.51 11.45 11.45 0 0 1-5.6 1.32z" style="fill:#37474f;transform-origin:251.39px 216.451px 0" id="elqlc6fn0cy2j" class="animable"/><g id="el8zk9inqw3sl"><path d="M247.14 203.87h-3.23v24.52a3.71 3.71 0 0 0 2.19 3.06 7.09 7.09 0 0 0 1 .49v-16.05a45.11 45.11 0 0 0 11.79 1.11v-13.13z" style="opacity:.15;transform-origin:251.4px 217.905px 0" class="animable" id="elxk4neh928un"/></g><path d="M220.37 168.12c0-18.57 15-30.57 33.62-30.57s33.61 12 33.61 30.57v20.32S280.91 199 254 199s-33.62-10-33.62-10z" style="fill:#ff7b33;transform-origin:253.985px 168.275px 0" id="elog7ih5u6nwp" class="animable"/><g id="el9uwu9wf9pd9"><path d="M259.33 144.05a3.46 3.46 0 0 0-1.88 1.9 2.63 2.63 0 0 0 .78 2.44 7.25 7.25 0 0 0 2.28 1.38 77.24 77.24 0 0 0 13.72 4.57c1.18.27 3.49 1.09 4.36 0 1-1.32.4-4-.95-5.72a13.64 13.64 0 0 0-8-5.42 14 14 0 0 0-10.31.85z" style="fill:#fff;opacity:.2;transform-origin:268.243px 148.74px 0" class="animable" id="ell24mwgkex"/></g><g id="eluhew81l4hdq"><path d="M287.6 175.64s-1.88 10.18-15.2 15.15-27.78 3.39-36.62 1.16c0 0 18.92 9.23 38.45.37 17.09-7.75 13.37-16.68 13.37-16.68z" style="opacity:.2;transform-origin:261.861px 185.902px 0" class="animable" id="elh0ho8p0nwmb"/></g><g id="el1zf9fwbukpp"><path d="M265.61 139.24a40 40 0 0 0-11.61-1.69c-18.57 0-33.62 12-33.62 30.57v20.81s2.75 4.1 11.76 7.06c-1.41-13.51-3.22-30.75 2.16-41.3 6.14-12.05 23.23-17.8 31.31-15.45z" style="opacity:.15;transform-origin:242.995px 166.77px 0" class="animable" id="el9ddrlhzfa9j"/></g><path d="M253 181.92a5 5 0 0 1-5-5v-2.31a5 5 0 0 1 5-5 5 5 0 0 1 5 5v2.31a5 5 0 0 1-5 5z" style="fill:#37474f;transform-origin:253px 175.765px 0" id="elq3vv7ddvd0f" class="animable"/><path d="M278 173.93c-2.37.88-3.62-.22-4.07-1.45a13.11 13.11 0 0 1-.31-5 6.48 6.48 0 0 1 3.57-5.38 2.84 2.84 0 0 1 4.22 1.64 14.47 14.47 0 0 1 .25 4.49c-.12 1.92-1.31 4.68-3.66 5.7z" style="fill:#37474f;transform-origin:277.621px 167.963px 0" id="elwmrabu72tw" class="animable"/><path d="M291.08 174.34a5.77 5.77 0 0 0-3.48-1.72v3c0 5-3.28 9.94-9.84 13.73-11.41 6.58-29 7.44-42 2.58v-1a13.6 13.6 0 0 0-6.16-10.66c-3.4-2-6.15-.38-6.15 3.55a13 13 0 0 1-3.1-8.15c-1.15 0-2.67.62-2.67 5 0 5.45-.27 11.57 4.9 18.32 8.35 10.91 30.31 20.53 49.21 13 20.15-8 20.26-23.13 20.26-29.27.02-4.57.38-6.83-.97-8.38z" style="fill:#ff7b33;transform-origin:254.893px 193.645px 0" id="elfi0x24ybl0t" class="animable"/><g id="elrb1xfzbq3gm"><path d="M291.08 174.34a5.77 5.77 0 0 0-3.48-1.72v3c0 5-3.28 9.94-9.84 13.73-11.41 6.58-29 7.44-42 2.58v-1a13.6 13.6 0 0 0-6.16-10.66c-3.4-2-6.15-.38-6.15 3.55a13 13 0 0 1-3.1-8.15c-1.15 0-2.67.62-2.67 5 0 5.45-.27 11.57 4.9 18.32 8.35 10.91 30.31 20.53 49.21 13 20.15-8 20.26-23.13 20.26-29.27.02-4.57.38-6.83-.97-8.38z" style="opacity:.1;transform-origin:254.893px 193.645px 0" class="animable" id="elietk45zuuz"/></g><g id="el7pvl2doy0sk"><path d="M260.19 213.09c-22.25-.34-33-11.9-35.78-17.1s-2.56-10.53-.94-9.84v-2.36a13 13 0 0 1-3.1-8.15c-1.15 0-2.67.62-2.67 5 0 5.45-.27 11.57 4.9 18.32 8.35 10.91 30.31 20.53 49.21 13a36.14 36.14 0 0 0 12.47-7.88c-5.12 3.86-13.37 9.17-24.09 9.01z" style="opacity:.15;transform-origin:250.989px 195.14px 0" class="animable" id="el1n5nnhokzux"/></g><g id="el0m060rji8m"><path d="M230.59 180.89c2.11 1.64 3.7 5.12 3.7 11.93l1.49-.87v-1a13.81 13.81 0 0 0-5.19-10.06z" style="opacity:.2;transform-origin:233.185px 186.855px 0" class="animable" id="ela0if3zxnn1k"/></g><path d="M287.6 175.64c0 5-3.28 9.94-9.84 13.73-11.41 6.58-29 7.44-42 2.58l-1.49.87s18.2 10 38.74 1.88c19.17-7.55 18.76-17.76 18.05-20.36a5.77 5.77 0 0 0-3.48-1.72z" style="fill:#ff7b33;transform-origin:262.786px 185.249px 0" id="elcdc8tqa4txt" class="animable"/><g id="elln6ik9aduvf"><path d="M287.6 175.64c0 5-3.28 9.94-9.84 13.73-11.41 6.58-29 7.44-42 2.58l-1.49.87s18.2 10 38.74 1.88c19.17-7.55 18.76-17.76 18.05-20.36a5.77 5.77 0 0 0-3.48-1.72z" style="fill:#fff;opacity:.6;transform-origin:262.786px 185.249px 0" class="animable" id="elvz6dnld4me"/></g><path d="M228.74 183.62a5.62 5.62 0 0 1 2.54 4.4c0 1.62-1.14 2.28-2.54 1.47a5.6 5.6 0 0 1-2.54-4.4c0-1.62 1.13-2.28 2.54-1.47z" style="fill:#37474f;transform-origin:228.74px 186.555px 0" id="elznr38iaxcz" class="animable"/><path d="M228.74 183.62a2.19 2.19 0 0 0-1.25-.33 2.1 2.1 0 0 0-.4 1.34 5.62 5.62 0 0 0 2.54 4.4 2.19 2.19 0 0 0 1.25.33 2.1 2.1 0 0 0 .4-1.34 5.62 5.62 0 0 0-2.54-4.4z" style="fill:#455a64;transform-origin:229.185px 186.325px 0" id="elci0jppsvzvs" class="animable"/><path d="M223.47 183.79a13 13 0 0 1-3.1-8.15 2.11 2.11 0 0 0-1.52.58 6.53 6.53 0 0 0 .36 5 10.22 10.22 0 0 0 4.26 4.92 13.31 13.31 0 0 1 0-2.35z" style="fill:#ff7b33;transform-origin:220.992px 180.889px 0" id="el1e6z1dvu1ey" class="animable"/><g id="el6arr87ria5l"><path d="M223.47 183.79a13 13 0 0 1-3.1-8.15 2.11 2.11 0 0 0-1.52.58 6.53 6.53 0 0 0 .36 5 10.22 10.22 0 0 0 4.26 4.92 13.31 13.31 0 0 1 0-2.35z" style="fill:#fff;opacity:.5;transform-origin:220.992px 180.889px 0" class="animable" id="elvjur11p402r"/></g><path d="M250.17 144.19v-18h-4.39v18a1.11 1.11 0 0 0 .65.9 3.45 3.45 0 0 0 3.1 0 1.12 1.12 0 0 0 .64-.9z" style="fill:#455a64;transform-origin:247.975px 135.824px 0" id="elhvkeq3uq5ws" class="animable"/><g id="eljxq103vuh9"><path d="M245.78 129.23a8.11 8.11 0 0 0 2.16.3 8.23 8.23 0 0 0 2.23-.32v-3.07h-4.39z" style="opacity:.15;transform-origin:247.975px 127.835px 0" class="animable" id="el8wngqv1lp8x"/></g><circle cx="247.94" cy="119.42" r="8.14" style="fill:#ff7b33;transform-origin:247.94px 119.42px 0" id="elwdp9g758r9" class="animable"/><g id="elwpegp4sdoy8"><path d="M247.94 123.68c-5.87-1-7.89-6.25-5.3-10.44a8.14 8.14 0 1 0 13.44 6.18c-.35 2.58-2.93 5.18-8.14 4.26z" style="opacity:.15;transform-origin:247.94px 120.399px 0" class="animable" id="els7s67yqbslf"/></g><g id="elotb982ikpbo"><path d="M247.62 116.68a12 12 0 0 1 3.59 1.7c.69.47 1.79 1.18 2.58.47s.58-2 .28-2.81a5.18 5.18 0 0 0-2.1-2.45 5.52 5.52 0 0 0-3.87-.71c-.84.15-2.22.58-2.45 1.55s1.07 1.99 1.97 2.25z" style="fill:#fff;opacity:.3;transform-origin:249.981px 115.969px 0" class="animable" id="elu32ns6i5jie"/></g><path d="M248 105.57a1 1 0 0 1-1-1v-7a1 1 0 0 1 2 0v7a1 1 0 0 1-1 1z" style="fill:#e0e0e0;transform-origin:248px 101.07px 0" id="elm0cysv1z1s" class="animable"/><path d="M255.39 107.58a1 1 0 0 1-.5-.13 1 1 0 0 1-.36-1.37L258 100a1 1 0 1 1 1.73 1l-3.51 6.08a1 1 0 0 1-.83.5z" style="fill:#e0e0e0;transform-origin:257.139px 103.522px 0" id="elpp3oqtvsx9" class="animable"/><path d="M260.81 113a1 1 0 0 1-.5-1.87l6.09-3.51a1 1 0 0 1 1 1.73l-6.09 3.52a1 1 0 0 1-.5.13z" style="fill:#e0e0e0;transform-origin:263.833px 110.253px 0" id="el9n9fccf4arn" class="animable"/><path d="M269.81 120.46h-7a1 1 0 0 1 0-2h7a1 1 0 0 1 0 2z" style="fill:#e0e0e0;transform-origin:266.31px 119.46px 0" id="el1j8pbn98066" class="animable"/><path d="M266.86 131.39a1 1 0 0 1-.5-.14l-6.09-3.51a1 1 0 1 1 1-1.73l6.08 3.51a1 1 0 0 1 .37 1.37 1 1 0 0 1-.86.5z" style="fill:#e0e0e0;transform-origin:263.794px 128.622px 0" id="el1q4acey47xm" class="animable"/><path d="M229 131.32a1 1 0 0 1-.5-1.87l6.08-3.51a1 1 0 0 1 1 1.74l-6.08 3.51a1 1 0 0 1-.5.13z" style="fill:#e0e0e0;transform-origin:232.038px 128.563px 0" id="el4f6pquca6ka" class="animable"/><path d="M233.09 120.38h-7a1 1 0 0 1 0-2h7a1 1 0 1 1 0 2z" style="fill:#e0e0e0;transform-origin:229.59px 119.38px 0" id="elczsxmj6m7fm" class="animable"/><path d="M235.1 113a1 1 0 0 1-.5-.13l-6.08-3.51a1 1 0 1 1 1-1.74l6.08 3.51a1 1 0 0 1 .37 1.37 1 1 0 0 1-.87.5z" style="fill:#e0e0e0;transform-origin:232.061px 110.243px 0" id="elnypm6rebr08" class="animable"/><path d="M240.55 107.54a1 1 0 0 1-.87-.5l-3.51-6.04a1 1 0 1 1 1.73-1l3.52 6.08a1 1 0 0 1-.87 1.5z" style="fill:#e0e0e0;transform-origin:238.784px 103.522px 0" id="elezs9xiixe6" class="animable"/></g></g><g id="freepik--error-404--inject-21" style="transform-origin:127.761px 139.072px 0;animation:1.5s Infinite linear shake;animation-delay:0s" class="animable"><g id="freepik--404--inject-21" style="transform-origin:127.761px 139.072px 0" class="animable"><g id="freepik--shadow--inject-21" style="transform-origin:173.055px 78.21px 0" class="animable"><path d="m171.44 82.27 3.23-1.87v-6.25z" style="fill:#e0e0e0;transform-origin:173.055px 78.21px 0" id="elft9dke3nj7m" class="animable"/></g><g id="freepik--404--inject-21" style="transform-origin:127.761px 103.954px 0" class="animable"><path d="M101.91 135.41a1.25 1.25 0 0 0-.24-.18l-7.14-4.12V97.24a2.3 2.3 0 0 0-.53-1.73.87.87 0 0 0-.22-.17l-7.68-4.41A1 1 0 0 0 85 91l-10.63 6.13a5 5 0 0 0-1.45 1.21 10.59 10.59 0 0 0-1.16 2.24l-21 52.94a14.28 14.28 0 0 0-.91 5.18v11.48a2.33 2.33 0 0 0 .56 1.73l.24.18 7.64 4.4a1 1 0 0 0 1.1-.07L73.87 168v2.22a2.3 2.3 0 0 0 .57 1.73.87.87 0 0 0 .22.17l7.65 4.41a1 1 0 0 0 1.11-.07l9.21-5.32a3.55 3.55 0 0 0 1.37-1.6 5.44 5.44 0 0 0 .57-2.38v-11l6-3.49a3.56 3.56 0 0 0 1.34-1.64 5.56 5.56 0 0 0 .56-2.38v-11.51a2.33 2.33 0 0 0-.56-1.73z" style="fill:#ff7b33;transform-origin:76.16px 133.732px 0" id="elldeq8ks7iie" class="animable"/><g id="elynf8n7c996o"><path d="M80.52 102.74v.14a10.35 10.35 0 0 0-1.11 2.12l-21 53a12 12 0 0 0-.62 2.17l-7.7-4.44a13.65 13.65 0 0 1 .61-2.15l21-52.94a9.46 9.46 0 0 1 1.17-2.24z" style="opacity:.15;transform-origin:65.305px 129.285px 0" class="animable" id="elfcvbbnfupq"/></g><g id="elru04d742p7f"><path d="m58.18 176.44-7.55-4.35a1.33 1.33 0 0 1-.24-.19 2.32 2.32 0 0 1-.56-1.73v-11.46a15.36 15.36 0 0 1 .3-3l7.64 4.41a14.64 14.64 0 0 0-.29 3v11.47a2.38 2.38 0 0 0 .55 1.73z" style="opacity:.3;transform-origin:54.0003px 166.075px 0" class="animable" id="elprdyiz7k7o"/></g><g id="el2l0eac0tt1o"><path style="opacity:.3;transform-origin:78.66px 136.155px 0" class="animable" id="eleehg7av7h3d" d="M81.88 126.2v19.91l-6.44-3.71 6.44-16.2z"/></g><g id="elvqugl0h9mz"><path style="opacity:.4;transform-origin:76.745px 147.215px 0" class="animable" id="el4kh0zlbpq2x" d="m81.88 146.11-10.27 5.92 3.83-9.63 6.44 3.71z"/></g><g id="elfb560962hcu"><path d="m82.08 176.4.13.11-7.55-4.34a1.24 1.24 0 0 1-.22-.18 2.3 2.3 0 0 1-.57-1.73V168l7.65-4.41v11a2.33 2.33 0 0 0 .56 1.81z" style="opacity:.3;transform-origin:78.0355px 170.05px 0" class="animable" id="el4gp2jas2z7y"/></g><g id="elp1agjudqc0f"><path d="M101.58 135.19a1 1 0 0 0-1 .12l-6.06 3.49v-7.69s6.23 3.59 7.06 4.08z" style="opacity:.15;transform-origin:98.05px 134.955px 0" class="animable" id="el521jj90st42"/></g><g id="elhb0x9qf9qmw"><path d="M93.69 95.31a1.1 1.1 0 0 0-1.07.1L82 101.54a4.87 4.87 0 0 0-1.44 1.2l-7.65-4.41a4.93 4.93 0 0 1 1.43-1.2L85 91a1 1 0 0 1 1.12-.07z" style="fill:#fff;opacity:.4;transform-origin:83.3px 96.7656px 0" class="animable" id="elhcbh0k5q2di"/></g><path d="M83.42 176.5a1 1 0 0 1-1.34-.1 2.33 2.33 0 0 1-.56-1.73v-11l-22.15 12.75a1 1 0 0 1-1.33-.1 2.29 2.29 0 0 1-.56-1.73v-11.47a14.2 14.2 0 0 1 .91-5.18l21-52.95a10.38 10.38 0 0 1 1.16-2.24 5 5 0 0 1 1.45-1.21l10.62-6.13a1 1 0 0 1 1.33.1 2.3 2.3 0 0 1 .57 1.73v41.56l6-3.49a1 1 0 0 1 1.34.1 2.33 2.33 0 0 1 .56 1.73v11.47a5.56 5.56 0 0 1-.56 2.38 3.56 3.56 0 0 1-1.34 1.64l-6 3.49v11a5.44 5.44 0 0 1-.57 2.38 3.55 3.55 0 0 1-1.33 1.64zm-1.55-30.39V126.2L71.61 152z" style="fill:#ff7b33;transform-origin:79.9493px 135.957px 0" id="el8o4csgkjf2u" class="animable"/><path d="M151.19 89.85a47.43 47.43 0 0 0-1.44-10.37 16.08 16.08 0 0 0-3.75-7.21 8.94 8.94 0 0 0-1.92-1.51l-7.66-4.42a9.56 9.56 0 0 0-4.36-1.24q-3.77-.18-9.06 2.9a33.56 33.56 0 0 0-9.07 7.62 45.36 45.36 0 0 0-6.29 10 53 53 0 0 0-3.72 11.52 74.5 74.5 0 0 0-1.45 12q-.14 4.74-.13 9.83t.13 9.44a48 48 0 0 0 1.45 10.37 16 16 0 0 0 3.72 7.21 8.77 8.77 0 0 0 1.91 1.5c1.28.76 7 4.08 7.78 4.49a9.38 9.38 0 0 0 4.25 1.18q3.8.18 9.07-2.86a33.37 33.37 0 0 0 9.07-7.61 44.83 44.83 0 0 0 6.29-10 52.81 52.81 0 0 0 3.73-11.52 73.37 73.37 0 0 0 1.44-12q.13-4.52.14-9.6t-.13-9.72zm-27.78 38.47a30.78 30.78 0 0 1-.27-3.55q-.36-9 0-18.18a36.82 36.82 0 0 1 .49-5.26 22.92 22.92 0 0 1 1.27-4.68 15.1 15.1 0 0 1 2.25-4 11.93 11.93 0 0 1 3-2.72c.15 1.07.27 2.24.34 3.51q.27 8.82 0 18.18a41.35 41.35 0 0 1-.46 5.25 21.2 21.2 0 0 1-1.27 4.68 15.9 15.9 0 0 1-2.28 4 12.19 12.19 0 0 1-3.07 2.77z" style="fill:#ff7b33;transform-origin:126.83px 109.13px 0" id="el9w9ll5jf48u" class="animable"/><g id="elbhzmj4vmuk7"><path d="M117.13 151.86c-1.27-.72-6.38-3.67-7.58-4.36a10 10 0 0 1-1.9-1.51 16 16 0 0 1-3.72-7.21 47.34 47.34 0 0 1-1.44-10.37c-.1-2.91-.14-6-.14-9.44s0-6.67.14-9.83a73.37 73.37 0 0 1 1.44-12 51 51 0 0 1 2.37-8.24l7.63 4.42a52.22 52.22 0 0 0-2.35 8.23 72.56 72.56 0 0 0-1.45 12c-.1 3.15-.14 6.43-.14 9.82s0 6.54.14 9.44a46.82 46.82 0 0 0 1.45 10.38 16 16 0 0 0 3.72 7.21 8.72 8.72 0 0 0 1.83 1.46z" style="opacity:.15;transform-origin:109.74px 120.38px 0" class="animable" id="el56r6nllwq1"/></g><g id="elo2d0f89ra7p"><path d="M143.81 70.6a9.68 9.68 0 0 0-4.08-1.08q-3.79-.18-9.07 2.85a33.44 33.44 0 0 0-9.07 7.63 44.54 44.54 0 0 0-6.29 10c-.26.55-.49 1.1-.73 1.67l-.63 1.61-7.63-4.42c.18-.48.37-1 .56-1.43.26-.62.51-1.23.79-1.84a45.63 45.63 0 0 1 6.29-10A33.55 33.55 0 0 1 123 68c3.51-2 6.55-3 9.08-2.85a9.42 9.42 0 0 1 4.35 1.23c.67.34 5.7 3.23 7.38 4.22z" style="fill:#fff;opacity:.4;transform-origin:125.06px 79.2076px 0" class="animable" id="el9of3cbcupin"/></g><g id="el92kjm9j3ut"><path d="M138.19 116.09a41.15 41.15 0 0 1-.47 5.24 20.51 20.51 0 0 1-1.26 4.68 15.32 15.32 0 0 1-.87 1.83l-7.59-4.42a16 16 0 0 0 .86-1.82 21.2 21.2 0 0 0 1.27-4.68 39.77 39.77 0 0 0 .45-5.24q.28-9.36 0-18.19a35 35 0 0 0-.38-3.49s.2-.14.46-.29a5.8 5.8 0 0 1 3.52-1 3.13 3.13 0 0 1 2.25 1.29 8.25 8.25 0 0 1 1.23 3.24 38.23 38.23 0 0 1 .53 4.68q.26 8.81 0 18.17z" style="opacity:.3;transform-origin:133.16px 108.272px 0" class="animable" id="elt6sp9692k9r"/></g><g id="elvofozv9vo99"><path d="M135.59 127.84a16.48 16.48 0 0 1-1.41 2.14 12 12 0 0 1-3.52 3 6 6 0 0 1-3.51 1.06 3.2 3.2 0 0 1-2.29-1.33 7.66 7.66 0 0 1-1.26-3.22c-.08-.37-.13-.77-.19-1.17a12 12 0 0 0 3.11-2.75 15.74 15.74 0 0 0 1.43-2.15z" style="opacity:.4;transform-origin:129.5px 128.73px 0" class="animable" id="elsm43y6k3b7o"/></g><path d="M130.66 72.37q5.26-3 9.07-2.85a9.08 9.08 0 0 1 6.27 2.75 16.08 16.08 0 0 1 3.73 7.21 47.43 47.43 0 0 1 1.44 10.37q.13 4.58.14 9.67t-.14 9.6a73.37 73.37 0 0 1-1.44 12 52.81 52.81 0 0 1-3.73 11.55 44.83 44.83 0 0 1-6.29 10 33.37 33.37 0 0 1-9.07 7.61q-5.26 3-9.07 2.86a9.08 9.08 0 0 1-6.29-2.75 16.07 16.07 0 0 1-3.73-7.22 47.26 47.26 0 0 1-1.44-10.37q-.13-4.35-.14-9.44t.14-9.82a73.61 73.61 0 0 1 1.44-12A52.9 52.9 0 0 1 115.3 90a44.83 44.83 0 0 1 6.29-10 33.41 33.41 0 0 1 9.07-7.63zm7.52 43.72q.28-9.36 0-18.19a36.73 36.73 0 0 0-.52-4.67 8.16 8.16 0 0 0-1.24-3.23 3.06 3.06 0 0 0-2.25-1.35 6 6 0 0 0-3.51 1 11.82 11.82 0 0 0-3.51 3 15.1 15.1 0 0 0-2.25 4 22.92 22.92 0 0 0-1.27 4.68 36.82 36.82 0 0 0-.49 5.26q-.36 9.19 0 18.18a30.15 30.15 0 0 0 .45 4.72 7.66 7.66 0 0 0 1.27 3.22 3.24 3.24 0 0 0 2.29 1.33 6 6 0 0 0 3.51-1 12 12 0 0 0 3.51-3 16.06 16.06 0 0 0 2.29-4 20.9 20.9 0 0 0 1.27-4.68 43.14 43.14 0 0 0 .45-5.27z" style="fill:#ff7b33;transform-origin:130.64px 111.33px 0" id="el208e5t948n3" class="animable"/><path d="M205.13 75.81a1.3 1.3 0 0 0-.23-.18c-.33-.18-7.15-4.12-7.15-4.12V37.64a2.33 2.33 0 0 0-.56-1.73 1.24 1.24 0 0 0-.23-.17l-7.63-4.41a1.07 1.07 0 0 0-1.12.07l-10.62 6.13a4.87 4.87 0 0 0-1.44 1.21A10.14 10.14 0 0 0 175 41l-21 52.92a14.29 14.29 0 0 0-.91 5.19v11.47a2.29 2.29 0 0 0 .56 1.73 1.08 1.08 0 0 0 .24.18l7.63 4.41a1.05 1.05 0 0 0 1.11-.08l14.5-8.37v2.21a2.33 2.33 0 0 0 .56 1.73.91.91 0 0 0 .23.17l7.64 4.42a1.05 1.05 0 0 0 1.11-.08l9.21-5.32a3.53 3.53 0 0 0 1.34-1.63 5.64 5.64 0 0 0 .56-2.39v-11L203.8 93a3.52 3.52 0 0 0 1.33-1.63 5.48 5.48 0 0 0 .56-2.38V77.54a2.29 2.29 0 0 0-.56-1.73z" style="fill:#ff7b33;transform-origin:179.39px 74.1531px 0" id="el43ttew6tg0b" class="animable"/><g id="elxhil77ntuze"><path d="M183.74 43.15v.13a11 11 0 0 0-1.08 2.12l-21 52.94a11.26 11.26 0 0 0-.62 2.17l-7.7-4.44a12.92 12.92 0 0 1 .61-2.15l21-52.94a9.72 9.72 0 0 1 1.16-2.24z" style="opacity:.15;transform-origin:168.54px 69.625px 0" class="animable" id="el4bvgqpnaug9"/></g><g id="el65jrf88r4qs"><path d="m161.4 116.84-7.55-4.35a1.21 1.21 0 0 1-.23-.18 2.31 2.31 0 0 1-.57-1.74V99.11a15.44 15.44 0 0 1 .3-3l7.65 4.41a14.63 14.63 0 0 0-.3 3V115a2.31 2.31 0 0 0 .56 1.72z" style="opacity:.3;transform-origin:157.22px 106.475px 0" class="animable" id="elcqk2zsady0w"/></g><g id="elalu1mo23ys"><path style="opacity:.3;transform-origin:181.88px 76.56px 0" class="animable" id="elopi2g1njv58" d="M185.1 66.6v19.92l-6.44-3.72 6.44-16.2z"/></g><g id="eli749mxxiyja"><path style="opacity:.4;transform-origin:179.965px 87.62px 0" class="animable" id="elol6csh4cdk" d="m185.1 86.52-10.27 5.92 3.83-9.64 6.44 3.72z"/></g><g id="elscwv7g96sz7"><path d="m185.31 116.8.13.12-7.55-4.35a1 1 0 0 1-.23-.18 2.33 2.33 0 0 1-.56-1.73v-2.21l7.64-4.42v11a2.28 2.28 0 0 0 .57 1.77z" style="opacity:.3;transform-origin:181.266px 110.475px 0" class="animable" id="el7i2h92jmrig"/></g><g id="el27alh80xk8y"><path d="M204.81 75.59a1.1 1.1 0 0 0-1 .12l-6.05 3.49v-7.69z" style="opacity:.15;transform-origin:201.285px 75.355px 0" class="animable" id="elz1ddo5rifb"/></g><g id="elumsgms2uxq"><path d="M196.91 35.71a1.06 1.06 0 0 0-1.06.11l-10.61 6.12a5.16 5.16 0 0 0-1.44 1.21l-7.64-4.42a5.09 5.09 0 0 1 1.43-1.2l10.62-6.13a1 1 0 0 1 1.12-.06c.07.03 6.87 3.96 7.58 4.37z" style="fill:#fff;opacity:.4;transform-origin:186.535px 37.1734px 0" class="animable" id="elclzz97k0jqa"/></g><path d="M186.64 116.9a1 1 0 0 1-1.33-.09 2.32 2.32 0 0 1-.56-1.74V104l-22.15 12.82a1 1 0 0 1-1.34-.1 2.32 2.32 0 0 1-.56-1.73v-11.47a14.24 14.24 0 0 1 .92-5.18l21-52.94a9.51 9.51 0 0 1 1.16-2.24 4.72 4.72 0 0 1 1.46-1.16l10.61-6.13a1 1 0 0 1 1.34.09 2.33 2.33 0 0 1 .56 1.73v41.52l6.05-3.49a1 1 0 0 1 1.33.09 2.29 2.29 0 0 1 .56 1.73V89a5.48 5.48 0 0 1-.56 2.38A3.52 3.52 0 0 1 203.8 93l-6.05 3.5v11a5.64 5.64 0 0 1-.56 2.39 3.53 3.53 0 0 1-1.34 1.63zm-1.54-30.39V66.6l-10.27 25.84z" style="fill:#ff7b33;transform-origin:183.196px 76.3828px 0" id="eloj7vp4moxr" class="animable"/></g><path d="M106.61 191.27a.31.31 0 0 1 .39 0 .7.7 0 0 1 .16.5v3.28a1.69 1.69 0 0 1-.16.68 1 1 0 0 1-.39.47l-9.53 5.51a.3.3 0 0 1-.38 0 .65.65 0 0 1-.16-.5v-20a1.57 1.57 0 0 1 .16-.68 1 1 0 0 1 .38-.47l9.37-5.41a.3.3 0 0 1 .39 0 .69.69 0 0 1 .16.49v3.29a1.73 1.73 0 0 1-.16.68 1 1 0 0 1-.39.47l-6.19 3.57v3.35l5.74-3.3a.29.29 0 0 1 .38 0 .67.67 0 0 1 .17.5v3.3a1.52 1.52 0 0 1-.17.68.93.93 0 0 1-.38.47l-5.75 3.32v3.47z" style="fill:#455a64;transform-origin:101.849px 188.178px 0" id="el2w07iszi328" class="animable"/><path d="M116 169.15a7.17 7.17 0 0 1 2.37-.94 2.6 2.6 0 0 1 1.78.27 2.84 2.84 0 0 1 1.13 1.57 9 9 0 0 1 .39 2.92 13.59 13.59 0 0 1-.62 4.21 11.22 11.22 0 0 1-1.77 3.36l2.49 5.93a.85.85 0 0 1 .06.31 1.3 1.3 0 0 1-.13.56.81.81 0 0 1-.31.38l-2.73 1.58c-.27.15-.46.17-.58 0a1.76 1.76 0 0 1-.27-.4l-2.23-5.34-1.85 1.07v6.63a1.73 1.73 0 0 1-.16.68 1 1 0 0 1-.39.46l-2.66 1.6a.3.3 0 0 1-.38 0 .66.66 0 0 1-.17-.5v-20a1.59 1.59 0 0 1 .17-.68 1 1 0 0 1 .38-.47zm-2.27 10.69 2.27-1.31a4.24 4.24 0 0 0 1.4-1.3 3.69 3.69 0 0 0 .55-2.12c0-.86-.18-1.36-.55-1.47a1.76 1.76 0 0 0-1.4.31l-2.27 1.31z" style="fill:#455a64;transform-origin:115.899px 181.112px 0" id="el712mwjkycyg" class="animable"/><path d="M130.46 160.78a7 7 0 0 1 2.37-.93 2.49 2.49 0 0 1 1.78.27 2.81 2.81 0 0 1 1.13 1.56 9.08 9.08 0 0 1 .39 2.92 13.6 13.6 0 0 1-.62 4.22 11.22 11.22 0 0 1-1.77 3.36l2.49 5.93a.81.81 0 0 1 .06.31 1.23 1.23 0 0 1-.13.55.82.82 0 0 1-.31.38l-2.74 1.58c-.27.16-.46.17-.57 0a1.18 1.18 0 0 1-.27-.4l-2.27-5.29-1.85 1.07v6.63a1.51 1.51 0 0 1-.16.68 1 1 0 0 1-.38.47l-2.61 1.52a.29.29 0 0 1-.38 0 .67.67 0 0 1-.16-.5v-20a1.54 1.54 0 0 1 .16-.68 1.1 1.1 0 0 1 .38-.47zm-2.28 10.7 2.28-1.31a4.22 4.22 0 0 0 1.39-1.3 3.71 3.71 0 0 0 .56-2.12c0-.87-.19-1.36-.56-1.48a1.79 1.79 0 0 0-1.39.31l-2.28 1.32z" style="fill:#455a64;transform-origin:130.374px 172.736px 0" id="eljou6bl138z" class="animable"/><path d="M138.48 164.23a17.45 17.45 0 0 1 .5-3.55 15.38 15.38 0 0 1 1.22-3.37 14.42 14.42 0 0 1 1.93-2.91 10.16 10.16 0 0 1 2.63-2.18 5.33 5.33 0 0 1 2.62-.85 2.91 2.91 0 0 1 1.94.68 4.3 4.3 0 0 1 1.22 1.95 10.48 10.48 0 0 1 .5 3v5.51a17.45 17.45 0 0 1-.5 3.55 16.29 16.29 0 0 1-1.22 3.39 13.86 13.86 0 0 1-1.94 2.92 10.6 10.6 0 0 1-2.62 2.16 5.45 5.45 0 0 1-2.63.86 2.8 2.8 0 0 1-1.93-.68 4.29 4.29 0 0 1-1.22-2 10.47 10.47 0 0 1-.5-3v-2.7c0-.97-.03-1.87 0-2.78zm8.83.26c0-.38 0-.8.05-1.26s0-.93 0-1.41v-1.36c0-.43 0-.83-.05-1.17a4.78 4.78 0 0 0-.21-1.3 2 2 0 0 0-.48-.86 1.13 1.13 0 0 0-.77-.31 2.25 2.25 0 0 0-1.09.35 4 4 0 0 0-1.09.91 5.34 5.34 0 0 0-.77 1.2 6.51 6.51 0 0 0-.48 1.41 8.77 8.77 0 0 0-.22 1.55V167.44a3.44 3.44 0 0 0 .7 2.17c.41.45 1 .43 1.86-.05a4.39 4.39 0 0 0 1.85-2.09 8.51 8.51 0 0 0 .7-2.98z" style="fill:#455a64;transform-origin:144.753px 163.38px 0" id="elhxbmomfcqwm" class="animable"/><path d="M159.89 143.79a7.4 7.4 0 0 1 2.37-.94 2.55 2.55 0 0 1 1.78.28 2.78 2.78 0 0 1 1.13 1.56 9.08 9.08 0 0 1 .39 2.92 13.54 13.54 0 0 1-.62 4.21 11.16 11.16 0 0 1-1.77 3.37l2.49 5.93a.8.8 0 0 1 .06.3 1.27 1.27 0 0 1-.13.56.87.87 0 0 1-.31.38l-2.74 1.58c-.26.15-.46.17-.57.05a1.56 1.56 0 0 1-.27-.4l-2.23-5.34-1.85 1.07V166a1.55 1.55 0 0 1-.17.68 1 1 0 0 1-.38.47l-2.63 1.52a.29.29 0 0 1-.39 0 .69.69 0 0 1-.16-.49v-20a1.65 1.65 0 0 1 .16-.68 1 1 0 0 1 .39-.47zm-2.27 10.7 2.27-1.31a4.27 4.27 0 0 0 1.4-1.31 3.68 3.68 0 0 0 .55-2.11c0-.87-.18-1.36-.55-1.48a1.8 1.8 0 0 0-1.4.31l-2.27 1.31z" style="fill:#455a64;transform-origin:159.804px 155.771px 0" id="elz9bzf4skgy" class="animable"/><path d="M70.33 227.89c1.25-.72 2.22-.82 2.9-.32s1 1.63 1 3.37a9.7 9.7 0 0 1-1 4.58 7.3 7.3 0 0 1-2.9 3L67.87 240v5.29a1.11 1.11 0 0 1-.13.52.72.72 0 0 1-.29.36l-1.25.72a.21.21 0 0 1-.29 0 .52.52 0 0 1-.12-.38v-15.35a1.28 1.28 0 0 1 .12-.53.75.75 0 0 1 .29-.35zM67.87 237l2.39-1.38a4.09 4.09 0 0 0 1.4-1.34 4 4 0 0 0 .52-2.17c0-.89-.17-1.4-.52-1.54a1.66 1.66 0 0 0-1.4.3l-2.39 1.38z" style="fill:#e0e0e0;transform-origin:70.0111px 237.104px 0" id="eljdh7kkkv3ac" class="animable"/><path d="M80.76 221.87c.16-.09.28-.09.37 0a1.21 1.21 0 0 1 .21.48l3.78 12.82a.76.76 0 0 1 0 .16 1.23 1.23 0 0 1-.12.52.73.73 0 0 1-.29.36l-1.11.64c-.21.12-.35.14-.43 0a.62.62 0 0 1-.17-.29l-.67-2.26-4.87 2.82-.66 3a2.39 2.39 0 0 1-.17.49.94.94 0 0 1-.43.45l-1.11.65a.23.23 0 0 1-.3 0 .49.49 0 0 1-.12-.38.88.88 0 0 1 0-.17l3.8-17.16a4.07 4.07 0 0 1 .22-.73 1 1 0 0 1 .37-.42zm.84 9.93-1.69-5.8-1.7 7.74z" style="fill:#e0e0e0;transform-origin:79.8951px 231.784px 0" id="elk3ik7qz9kkl" class="animable"/><path d="M86.32 224.81a14.39 14.39 0 0 1 .34-2.8 11.17 11.17 0 0 1 .9-2.53 9.56 9.56 0 0 1 1.44-2.14 8 8 0 0 1 2-1.62 4.52 4.52 0 0 1 2.22-.74 2.13 2.13 0 0 1 1.38.48 2.39 2.39 0 0 1 .73 1.13 5.08 5.08 0 0 1 .24 1.2 1 1 0 0 1-.12.53.82.82 0 0 1-.3.35l-1.25.72q-.17.11-.27 0a.45.45 0 0 1-.14-.19s-.08-.16-.17-.32a1.05 1.05 0 0 0-.41-.43 1.39 1.39 0 0 0-.75-.18 2.42 2.42 0 0 0-1.16.39 4.82 4.82 0 0 0-1.85 2 7.14 7.14 0 0 0-.74 3v3.91c0 1.3.28 2.11.74 2.44a1.69 1.69 0 0 0 1.85-.18 5.4 5.4 0 0 0 1.05-.8 4.55 4.55 0 0 0 .83-1.09 5.82 5.82 0 0 0 .54-1.44 8.43 8.43 0 0 0 .19-1.83v-.19l-1.88 1.08a.23.23 0 0 1-.3 0 .49.49 0 0 1-.12-.38v-1.68a1.23 1.23 0 0 1 .12-.52.74.74 0 0 1 .3-.36l3.54-2.05a.24.24 0 0 1 .3 0 .52.52 0 0 1 .12.38v2.61a13.62 13.62 0 0 1-.29 2.79 11.54 11.54 0 0 1-.88 2.58 9.55 9.55 0 0 1-1.52 2.21 7.74 7.74 0 0 1-2 1.67 4.46 4.46 0 0 1-2 .71 2 2 0 0 1-1.44-.51 3.38 3.38 0 0 1-.87-1.55 9.39 9.39 0 0 1-.33-2.43V225.8c0-.36-.05-.69-.04-.99z" style="fill:#e0e0e0;transform-origin:91.0053px 224.251px 0" id="elrcydyx29dv" class="animable"/><path d="M105.19 221.41a.24.24 0 0 1 .29 0 .49.49 0 0 1 .13.38v1.69a1.11 1.11 0 0 1-.13.52.73.73 0 0 1-.29.36l-6.76 3.91a.24.24 0 0 1-.3 0 .52.52 0 0 1-.12-.38v-15.34a1.27 1.27 0 0 1 .12-.52.79.79 0 0 1 .3-.36l6.64-3.83a.21.21 0 0 1 .29 0 .51.51 0 0 1 .12.38v1.68a1.2 1.2 0 0 1-.12.52.73.73 0 0 1-.29.36l-5 2.88v3.77l4.64-2.68a.24.24 0 0 1 .29 0 .49.49 0 0 1 .13.38v1.69a1.11 1.11 0 0 1-.13.52.73.73 0 0 1-.29.36l-4.64 2.68v3.94z" style="fill:#e0e0e0;transform-origin:101.81px 218.052px 0" id="eljo8737ozid" class="animable"/><path d="M118.81 216.52c-.18.1-.31.11-.41 0l-.2-.22-4.31-7.38v9.78a1.11 1.11 0 0 1-.13.52.73.73 0 0 1-.29.36l-1.25.72a.21.21 0 0 1-.29 0 .51.51 0 0 1-.12-.38v-15.33a1.28 1.28 0 0 1 .12-.53.75.75 0 0 1 .29-.35l1.08-.63c.18-.1.31-.1.4 0a1.2 1.2 0 0 1 .2.21l4.32 7.38v-9.77a1.28 1.28 0 0 1 .12-.53.85.85 0 0 1 .3-.36l1.24-.72a.24.24 0 0 1 .3 0 .52.52 0 0 1 .12.38V215a1.23 1.23 0 0 1-.12.52.85.85 0 0 1-.3.36z" style="fill:#e0e0e0;transform-origin:116.055px 209.798px 0" id="ele9ekdsa8jc" class="animable"/><path d="M122.72 203.84a15.33 15.33 0 0 1 .33-2.69 11.56 11.56 0 0 1 .84-2.53 10.09 10.09 0 0 1 1.39-2.18 7.35 7.35 0 0 1 2-1.65 3.9 3.9 0 0 1 2-.63 1.93 1.93 0 0 1 1.39.57 3.69 3.69 0 0 1 .85 1.56 9.56 9.56 0 0 1 .34 2.32v4.25a15.33 15.33 0 0 1-.33 2.7 11.76 11.76 0 0 1-.85 2.53 9.66 9.66 0 0 1-1.39 2.17 7.67 7.67 0 0 1-2 1.63 4 4 0 0 1-2 .64 2 2 0 0 1-1.39-.56 3.46 3.46 0 0 1-.84-1.56 9.73 9.73 0 0 1-.33-2.31v-3.26c0-.37-.02-.69-.01-1zm7-3.91a3.14 3.14 0 0 0-.72-2.24 1.41 1.41 0 0 0-1.73.07 4.36 4.36 0 0 0-1.74 1.94 7.26 7.26 0 0 0-.72 3.06v4a3 3 0 0 0 .72 2.22c.44.36 1 .34 1.74-.08A4.46 4.46 0 0 0 129 207a7.57 7.57 0 0 0 .72-3.05v-2c0-.71.01-1.43-.01-2.02z" style="fill:#e0e0e0;transform-origin:127.289px 203.345px 0" id="ell9u2ow1jd2a" class="animable"/><path d="M141.17 187a.24.24 0 0 1 .3 0 .52.52 0 0 1 .12.38v1.69a1.23 1.23 0 0 1-.12.52.85.85 0 0 1-.3.36l-2.77 1.6v13a1.23 1.23 0 0 1-.12.52.85.85 0 0 1-.3.36l-1.25.72a.22.22 0 0 1-.29 0 .52.52 0 0 1-.12-.38v-13l-2.78 1.6a.21.21 0 0 1-.29 0 .51.51 0 0 1-.12-.38v-1.68a1.28 1.28 0 0 1 .12-.53.75.75 0 0 1 .29-.35z" style="fill:#e0e0e0;transform-origin:137.36px 196.576px 0" id="elt5o6jckt0tb" class="animable"/><path d="M154 179.57a.23.23 0 0 1 .3 0 .51.51 0 0 1 .12.38v1.68a1.28 1.28 0 0 1-.12.53.76.76 0 0 1-.3.35l-4.92 2.84V190l4.61-2.66a.23.23 0 0 1 .3 0 .51.51 0 0 1 .12.38v1.68a1.2 1.2 0 0 1-.12.52.69.69 0 0 1-.3.36l-4.58 2.72v5.43a1.2 1.2 0 0 1-.12.52.73.73 0 0 1-.29.36l-1.25.72a.21.21 0 0 1-.29 0 .47.47 0 0 1-.13-.38v-15.4a1.11 1.11 0 0 1 .13-.52.73.73 0 0 1 .29-.36z" style="fill:#e0e0e0;transform-origin:150.725px 189.801px 0" id="elggub4qdkzw6" class="animable"/><path d="M156.13 184.55a15.33 15.33 0 0 1 .33-2.69 11.56 11.56 0 0 1 .84-2.53 9.73 9.73 0 0 1 1.39-2.18 7.31 7.31 0 0 1 2-1.65 3.93 3.93 0 0 1 2-.63 1.9 1.9 0 0 1 1.39.58 3.59 3.59 0 0 1 .85 1.55 9.56 9.56 0 0 1 .34 2.32v4.26a15.35 15.35 0 0 1-.34 2.69 11.56 11.56 0 0 1-.84 2.53 9.66 9.66 0 0 1-1.39 2.17 7.55 7.55 0 0 1-2 1.63 4 4 0 0 1-2 .64 2 2 0 0 1-1.39-.56 3.41 3.41 0 0 1-.84-1.56 9.73 9.73 0 0 1-.33-2.31v-3.26c0-.37-.02-.69-.01-1zm7-3.91a3.06 3.06 0 0 0-.71-2.23q-.66-.57-1.74.06a4.4 4.4 0 0 0-1.73 1.94 7.34 7.34 0 0 0-.72 3.06v4a3 3 0 0 0 .72 2.22c.43.37 1 .34 1.73-.07a4.51 4.51 0 0 0 1.74-1.93 7.4 7.4 0 0 0 .71-3v-2c0-.71 0-1.46-.02-2.05z" style="fill:#e0e0e0;transform-origin:160.699px 184.055px 0" id="elmvy96puucbf" class="animable"/><path d="M176 166.91a.21.21 0 0 1 .29 0 .52.52 0 0 1 .12.38V177a13.62 13.62 0 0 1-.28 2.82 10.8 10.8 0 0 1-.83 2.52 8.73 8.73 0 0 1-1.39 2.12 7.5 7.5 0 0 1-1.92 1.58 4.26 4.26 0 0 1-1.94.65 1.85 1.85 0 0 1-1.38-.52 3.26 3.26 0 0 1-.82-1.56 10.09 10.09 0 0 1-.27-2.51v-9.73a1.23 1.23 0 0 1 .12-.52.84.84 0 0 1 .29-.36l1.25-.72a.23.23 0 0 1 .3 0 .52.52 0 0 1 .12.38v9.61a6 6 0 0 0 .17 1.57 1.69 1.69 0 0 0 .48.85 1 1 0 0 0 .74.21 2.4 2.4 0 0 0 .94-.34 4.75 4.75 0 0 0 1-.75 4.15 4.15 0 0 0 .74-1.07 6 6 0 0 0 .49-1.41 7.94 7.94 0 0 0 .18-1.76v-9.56a1.27 1.27 0 0 1 .12-.52.84.84 0 0 1 .29-.36z" style="fill:#e0e0e0;transform-origin:171.995px 176.772px 0" id="elgjnvgn35l5d" class="animable"/><path d="M186.09 177.68c-.18.1-.31.1-.41 0a1.77 1.77 0 0 1-.2-.21l-4.31-7.38v9.78a1.11 1.11 0 0 1-.13.52.84.84 0 0 1-.29.36l-1.25.72a.22.22 0 0 1-.29 0 .52.52 0 0 1-.12-.38v-15.35a1.27 1.27 0 0 1 .12-.52.84.84 0 0 1 .29-.36l1.08-.62c.18-.1.31-.11.4 0a1.72 1.72 0 0 1 .2.22l4.32 7.38V162a1.23 1.23 0 0 1 .12-.52.78.78 0 0 1 .29-.36l1.25-.72a.23.23 0 0 1 .3 0 .52.52 0 0 1 .12.38v15.33a1.2 1.2 0 0 1-.12.52.74.74 0 0 1-.3.36z" style="fill:#e0e0e0;transform-origin:183.335px 170.934px 0" id="el19iwbnwg027" class="animable"/><path d="M194.59 156.15a4.35 4.35 0 0 1 2-.68 1.85 1.85 0 0 1 1.4.51 3.41 3.41 0 0 1 .86 1.56 10.7 10.7 0 0 1 .36 2.5q.08 1.72 0 3.51a17 17 0 0 1-.36 2.92A12 12 0 0 1 198 169a9.15 9.15 0 0 1-1.38 2.11 7.64 7.64 0 0 1-1.94 1.58l-3.89 2.31a.23.23 0 0 1-.3 0 .51.51 0 0 1-.12-.38v-15.39a1.2 1.2 0 0 1 .12-.52.74.74 0 0 1 .3-.36zm2.53 5.09a5.41 5.41 0 0 0-.19-1.3 1.92 1.92 0 0 0-.48-.86 1 1 0 0 0-.79-.3 2.42 2.42 0 0 0-1.14.38l-2.07 1.19V171l2.14-1.23a4.24 4.24 0 0 0 1.1-.91 5.28 5.28 0 0 0 .77-1.19 6.49 6.49 0 0 0 .47-1.41 8.88 8.88 0 0 0 .19-1.54q.06-1.72 0-3.48z" style="fill:#e0e0e0;transform-origin:194.809px 165.261px 0" id="elqygtzqd68b" class="animable"/></g></g><g id="freepik--speech-bubble--inject-21" style="transform-origin:357.118px 134.197px 0" class="animable"><g id="freepik--speech-bubble--inject-21" style="transform-origin:357.118px 134.197px 0" class="animable"><g id="freepik--speech-bubble--inject-21" style="transform-origin:357.118px 134.197px 0" class="animable"><path d="M397.11 85.78 321 129.65a3.14 3.14 0 0 0-1.43 2.48v45.16a3.13 3.13 0 0 0 1.44 2.47l5.13 2.87a3.22 3.22 0 0 0 2.87 0l76.08-43.87a3.18 3.18 0 0 0 1.43-2.48V91.1a3.11 3.11 0 0 0-1.44-2.46L400 85.76a3.19 3.19 0 0 0-2.89.02z" style="fill:#ff7b33;transform-origin:363.045px 134.196px 0" id="elc2971zmw9fv" class="animable"/><path d="M327.61 181.79v-45.16a3.16 3.16 0 0 1 1.43-2.48l76.08-43.87c.79-.46 1.43-.09 1.43.82v45.17a3.18 3.18 0 0 1-1.43 2.48L329 182.62c-.75.45-1.39.08-1.39-.83z" style="fill:#ff7b33;transform-origin:367.08px 136.447px 0" id="elqliukfgqoon" class="animable"/><g id="elf1j03z60etm"><path d="M329 182.62a3.12 3.12 0 0 1-2.87 0l-5.13-2.87a3.1 3.1 0 0 1-1.44-2.46v-45.16a3 3 0 0 1 .45-1.46l8 4.55a2.88 2.88 0 0 0-.42 1.41v45.16c.02.83.61 1.32 1.41.83z" style="opacity:.2;transform-origin:324.28px 156.82px 0" class="animable" id="el77brmob85dp"/></g><g id="el0i4ivzooe6d8"><path d="M406.53 90.84c-.11-.72-.7-1-1.41-.56L329 134.15a2.9 2.9 0 0 0-1 1.07l-8-4.55a2.83 2.83 0 0 1 1-1l76.08-43.88a3.22 3.22 0 0 1 2.87 0l5.13 2.88a3.15 3.15 0 0 1 1.45 2.17z" style="fill:#fff;opacity:.4;transform-origin:363.265px 110.336px 0" class="animable" id="elouvw88w27ei"/></g><path d="m319.6 151.82-11.52 11.72a1.27 1.27 0 0 0 .21 2c.24.15 8 4.59 8 4.59l11.34-13.66z" style="fill:#ff7b33;transform-origin:317.658px 160.975px 0" id="elbanlimwbmq" class="animable"/><g id="el7mfhpwqypft"><path d="m319.6 151.82-11.52 11.72a1.27 1.27 0 0 0 .21 2c.24.15 8 4.59 8 4.59l11.34-13.66z" style="opacity:.1;transform-origin:317.658px 160.975px 0" class="animable" id="el1xmabyccd6b"/></g><path d="m327.61 156.43-11.52 11.72a1.27 1.27 0 0 0 1.08 2.15l10.44-1.51c1.12 0 1.12-12.36 0-12.36z" style="fill:#ff7b33;transform-origin:322.087px 163.371px 0" id="elee8l5025fra" class="animable"/></g><path d="M335.15 148.72a20.79 20.79 0 0 1 .56-4 18.32 18.32 0 0 1 1.39-3.82 16 16 0 0 1 2.19-3.3 11.39 11.39 0 0 1 3-2.47 6.07 6.07 0 0 1 3-1 3.33 3.33 0 0 1 2.2.77 4.78 4.78 0 0 1 1.39 2.21 11.64 11.64 0 0 1 .56 3.38c0 1 .05 2 .05 3.14s0 2.14-.05 3.11a19.36 19.36 0 0 1-.56 4 17.94 17.94 0 0 1-1.39 3.84 15.5 15.5 0 0 1-2.2 3.31 11.68 11.68 0 0 1-3 2.44 6.18 6.18 0 0 1-3 1 3.17 3.17 0 0 1-2.19-.77 5 5 0 0 1-1.39-2.23 12.36 12.36 0 0 1-.56-3.38v-3.07c0-1.07-.03-2.14 0-3.16zm10 .29V143.12a6.1 6.1 0 0 0-.24-1.48 2.3 2.3 0 0 0-.54-1 1.31 1.31 0 0 0-.88-.35 2.35 2.35 0 0 0-1.23.4 4.65 4.65 0 0 0-1.23 1 6.16 6.16 0 0 0-.88 1.37 7.55 7.55 0 0 0-.55 1.6 10 10 0 0 0-.24 1.75q0 .63-.06 1.38V150.94c0 .51 0 1 .06 1.37a3.88 3.88 0 0 0 .79 2.46c.46.5 1.16.48 2.11-.06a5 5 0 0 0 2.09-2.37 9.63 9.63 0 0 0 .81-3.34z" style="fill:#455a64;transform-origin:342.313px 147.731px 0" id="el2lz560utvfq" class="animable"/><path d="M363.9 137.07v2.7a14.82 14.82 0 0 1-.5 3.45 16.47 16.47 0 0 1-1.25 3.31 14 14 0 0 1-1.93 2.85 9.91 9.91 0 0 1-2.52 2.08 5.23 5.23 0 0 1-2.52.82 2.83 2.83 0 0 1-1.92-.62 4.23 4.23 0 0 1-1.26-1.86 8.88 8.88 0 0 1-.5-2.87v-2.7a14.61 14.61 0 0 1 .48-3.43 15.49 15.49 0 0 1 1.27-3.32 14.42 14.42 0 0 1 1.93-2.87 9.76 9.76 0 0 1 2.52-2.1 5.13 5.13 0 0 1 2.52-.81 3 3 0 0 1 1.94.64 4 4 0 0 1 1.25 1.85 9.06 9.06 0 0 1 .49 2.88zm-8.29 7.32a2.27 2.27 0 0 0 .62 1.73 1.28 1.28 0 0 0 1.47-.1 3.76 3.76 0 0 0 1.47-1.6 5.88 5.88 0 0 0 .63-2.45c0-.37.05-.78.05-1.22s0-.84-.05-1.17a2.27 2.27 0 0 0-.63-1.73c-.37-.29-.86-.25-1.47.1a3.76 3.76 0 0 0-1.47 1.6 5.87 5.87 0 0 0-.62 2.45 11.59 11.59 0 0 0-.05 1.22 10.09 10.09 0 0 0 .05 1.17z" style="fill:#455a64;transform-origin:357.7px 141.991px 0" id="elierusl3aick" class="animable"/><path d="M373.44 142.38a3.6 3.6 0 0 1-1.17.46 2 2 0 0 1-.86 0 1.54 1.54 0 0 1-.62-.33 2.38 2.38 0 0 1-.41-.44v7.47a1.85 1.85 0 0 1-.18.78 1.19 1.19 0 0 1-.44.53l-2.87 1.66a.34.34 0 0 1-.43 0 .78.78 0 0 1-.18-.57v-23a1.85 1.85 0 0 1 .18-.78 1.18 1.18 0 0 1 .43-.53l2.76-1.59a.32.32 0 0 1 .43 0 .76.76 0 0 1 .19.56v.81c.13-.31.28-.65.44-1a7.07 7.07 0 0 1 .59-1 6.57 6.57 0 0 1 .87-1 6.23 6.23 0 0 1 1.27-.93 4.35 4.35 0 0 1 1.93-.64 2.14 2.14 0 0 1 1.6.55 4.28 4.28 0 0 1 1.11 1.87 11.64 11.64 0 0 1 .46 3.31V131.42a18.21 18.21 0 0 1-.46 3.85 15.51 15.51 0 0 1-1.11 3.15 10.63 10.63 0 0 1-1.6 2.41 8.14 8.14 0 0 1-1.93 1.55zm1-9.09a12.82 12.82 0 0 0 0-2 3.5 3.5 0 0 0-.52-1.84q-.46-.66-1.53 0a3.09 3.09 0 0 0-.87.74 4.82 4.82 0 0 0-.6 1 6.32 6.32 0 0 0-.38 1.11 7.58 7.58 0 0 0-.18 1.13c0 .36-.05.78-.05 1.25s0 .87.05 1.2a4.17 4.17 0 0 0 .18.92 1.81 1.81 0 0 0 .38.67.87.87 0 0 0 .6.3 1.48 1.48 0 0 0 .87-.25 3.5 3.5 0 0 0 1.53-1.79 7.89 7.89 0 0 0 .54-2.44z" style="fill:#455a64;transform-origin:372.409px 137.71px 0" id="elfskaqyrv3je" class="animable"/><path d="M387.66 128.34c0-.26-.05-.43-.17-.5a.77.77 0 0 0-.58 0 10.65 10.65 0 0 0-1.08.35c-.45.16-1 .35-1.68.54a2.54 2.54 0 0 1-2.67-.42 4.66 4.66 0 0 1-.93-3.32 8.12 8.12 0 0 1 .39-2.44 11.49 11.49 0 0 1 1.08-2.41 10.94 10.94 0 0 1 1.68-2.18 10.28 10.28 0 0 1 2.18-1.71 6.34 6.34 0 0 1 2.19-.82 3.76 3.76 0 0 1 1.74.12 2.27 2.27 0 0 1 1.15.92 3 3 0 0 1 .47 1.5 1.6 1.6 0 0 1-.18.77 1.15 1.15 0 0 1-.44.53l-2.71 1.57c-.17.1-.3.12-.4.06a3 3 0 0 0-.36-.19 1.17 1.17 0 0 0-.53-.07 2.42 2.42 0 0 0-.93.35 3.16 3.16 0 0 0-.87.74 1.47 1.47 0 0 0-.36 1 .86.86 0 0 0 .12.53c.07.1.23.12.45.07a9.62 9.62 0 0 0 1-.29l1.62-.55c1.38-.45 2.39-.31 3 .42a4.71 4.71 0 0 1 .95 3.19 8.28 8.28 0 0 1-.39 2.45 10.81 10.81 0 0 1-1.14 2.48 12.35 12.35 0 0 1-1.82 2.3 11.87 11.87 0 0 1-2.44 1.87 6.5 6.5 0 0 1-2.41.91 3.11 3.11 0 0 1-1.74-.2 2.38 2.38 0 0 1-1.09-1 3.31 3.31 0 0 1-.42-1.48 1.53 1.53 0 0 1 .17-.76 1.25 1.25 0 0 1 .45-.54l2.82-1.63c.17-.1.29-.1.37 0a1.11 1.11 0 0 0 .3.25.93.93 0 0 0 .52.12 2.48 2.48 0 0 0 1-.4 4.44 4.44 0 0 0 1.18-1 1.66 1.66 0 0 0 .51-1.13z" style="fill:#455a64;transform-origin:386.071px 125.767px 0" id="elxpndme0vp8f" class="animable"/><path d="M398.17 119.25a1.77 1.77 0 0 1-.18.77 1.08 1.08 0 0 1-.43.53l-2.88 1.66a.32.32 0 0 1-.43 0 .75.75 0 0 1-.18-.56v-15.16a1.77 1.77 0 0 1 .18-.77 1.13 1.13 0 0 1 .43-.53l2.88-1.66a.32.32 0 0 1 .43 0 .75.75 0 0 1 .18.56zm0 7.55a1.8 1.8 0 0 1-.18.77 1.13 1.13 0 0 1-.43.53l-2.88 1.66a.32.32 0 0 1-.43 0 .75.75 0 0 1-.18-.56v-3.55a1.8 1.8 0 0 1 .18-.77 1.13 1.13 0 0 1 .43-.53l2.88-1.66a.32.32 0 0 1 .43 0 .75.75 0 0 1 .18.56z" style="fill:#455a64;transform-origin:396.12px 116.645px 0" id="el2g3defdyedq" class="animable"/></g></g><defs><filter id="active" height="200%"><feMorphology in="SourceAlpha" result="DILATED" operator="dilate" radius="2"/><feFlood flood-color="#32DFEC" flood-opacity="1" result="PINK"/><feComposite in="PINK" in2="DILATED" operator="in" result="OUTLINE"/><feMerge><feMergeNode in="OUTLINE"/><feMergeNode in="SourceGraphic"/></feMerge></filter><filter id="hover" height="200%"><feMorphology in="SourceAlpha" result="DILATED" operator="dilate" radius="2"/><feFlood flood-color="red" flood-opacity=".5" result="PINK"/><feComposite in="PINK" in2="DILATED" operator="in" result="OUTLINE"/><feMerge><feMergeNode in="OUTLINE"/><feMergeNode in="SourceGraphic"/></feMerge><feColorMatrix values="0 0 0 0 0 0 1 0 0 0 0 0 0 0 0 0 0 0 1 0"/></filter></defs></svg>